<?xml version="1.0" encoding="utf-8"?>
<!-- Generator: Adobe Illustrator 19.0.0, SVG Export Plug-In . SVG Version: 6.00 Build 0)  -->
<svg version="1.1" id="Layer_1" xmlns="http://www.w3.org/2000/svg" xmlns:xlink="http://www.w3.org/1999/xlink" x="0px" y="0px"
	 viewBox="0 0 291 72" style="enable-background:new 0 0 291 72;" xml:space="preserve">
<style type="text/css">
	.st0{fill:#3DB7E4;}
</style>
<g>
	<polygon class="st0" points="96.7,47.9 72.5,60.1 72.5,72 96.7,59.8 120.8,72 145.5,59.8 145.5,47.9 120.8,60.1 	"/>
	<polygon class="st0" points="24.2,24.4 0,36.6 0,48.5 24.2,36.3 48.3,48.5 72.5,36.3 72.5,24.4 48.3,36.6 	"/>
	<polygon class="st0" points="24.2,47.9 0,60.1 0,72 24.2,59.8 48.3,72 72.5,59.8 72.5,47.9 48.3,60.1 	"/>
	<polygon class="st0" points="96.7,24.4 72.5,36.6 72.5,48.5 96.7,36.3 120.8,48.5 145.5,36.3 145.5,24.4 120.8,36.6 	"/>
	<polygon class="st0" points="242.2,47.9 218,60.1 218,72 242.2,59.8 266.3,72 291,59.8 291,47.9 266.3,60.1 	"/>
	<polygon class="st0" points="266.3,12.2 242.2,0 218,12.2 218,0 193.8,12.2 169.7,0 145.5,12.2 145.5,0 120.8,12.2 96.7,0 
		72.5,12.2 72.5,0 48.3,12.2 24.2,0 0,12.2 0,24.4 24.2,12.2 48.3,24.4 72.5,12.2 72.5,24.4 96.7,12.2 120.8,24.4 145.5,12.2 
		145.5,24.4 169.7,12.2 193.8,24.4 218,12.2 218,24.4 242.2,12.2 266.3,24.4 291,12.2 291,0 	"/>
	<polygon class="st0" points="242.2,24.4 218,36.6 218,48.5 242.2,36.3 266.3,48.5 291,36.3 291,24.4 266.3,36.6 	"/>
	<polygon class="st0" points="169.7,47.9 145.5,60.1 145.5,72 169.7,59.8 193.8,72 218,59.8 218,47.9 193.8,60.1 	"/>
	<polygon class="st0" points="169.7,24.4 145.5,36.6 145.5,48.5 169.7,36.3 193.8,48.5 218,36.3 218,24.4 193.8,36.6 	"/>
</g>
</svg>
