<?xml version="1.0" encoding="iso-8859-1"?>
<!-- Generator: Adobe Illustrator 19.0.0, SVG Export Plug-In . SVG Version: 6.00 Build 0)  -->
<svg version="1.1" id="Capa_1" xmlns="http://www.w3.org/2000/svg" xmlns:xlink="http://www.w3.org/1999/xlink" x="0px" y="0px"
	 viewBox="0 0 512 512" style="enable-background:new 0 0 512 512;" xml:space="preserve">
<g>
	<g>
		<path d="M512,106.58l-92.836-13.258L405.906,0.514l-84.041,84.041l6.194,43.35C294.394,104.935,253.74,91.486,210,91.486
			c-115.794,0-210,94.206-210,210s94.206,210,210,210s210-94.206,210-210c0-43.327-13.192-83.63-35.767-117.109l43.699,6.243
			L512,106.58z M384.693,64.153l5.303,37.123l-31.008,31.008l-5.303-37.123L384.693,64.153z M390,301.486
			c0,99.253-80.748,180-180,180s-180-80.748-180-180s80.748-180,180-180c44.492,0,85.258,16.234,116.707,43.08l-26.606,26.606
			c-24.571-20.106-55.95-32.186-90.101-32.186c-78.575,0-142.5,63.925-142.5,142.5s63.925,142.5,142.5,142.5
			s142.5-63.925,142.5-142.5c0-33.641-11.725-64.59-31.293-88.994l26.63-26.63C374.134,217.161,390,257.503,390,301.486z
			 M221.106,312.593l29.808-29.807c2.616,5.699,4.086,12.029,4.086,18.7c0,24.813-20.187,45-45,45s-45-20.187-45-45s20.187-45,45-45
			c7.204,0,14.011,1.711,20.054,4.733l-30.161,30.161L221.106,312.593z M251.937,239.336c-11.979-8.109-26.415-12.85-41.937-12.85
			c-41.355,0-75,33.645-75,75c0,41.355,33.645,75,75,75s75-33.645,75-75c0-15.005-4.447-28.984-12.067-40.72l26.91-26.91
			c14.216,18.838,22.657,42.266,22.657,67.63c0,62.033-50.468,112.5-112.5,112.5s-112.5-50.467-112.5-112.5
			s50.468-112.5,112.5-112.5c25.875,0,49.734,8.786,68.762,23.525L251.937,239.336z M380.202,153.497l31.008-31.008l37.124,5.303
			L417.326,158.8L380.202,153.497z"/>
	</g>
</g>
<g>
</g>
<g>
</g>
<g>
</g>
<g>
</g>
<g>
</g>
<g>
</g>
<g>
</g>
<g>
</g>
<g>
</g>
<g>
</g>
<g>
</g>
<g>
</g>
<g>
</g>
<g>
</g>
<g>
</g>
</svg>
