<?xml version="1.0" encoding="iso-8859-1"?>
<!-- Generator: Adobe Illustrator 19.0.0, SVG Export Plug-In . SVG Version: 6.00 Build 0)  -->
<svg version="1.1" id="Capa_1" xmlns="http://www.w3.org/2000/svg" xmlns:xlink="http://www.w3.org/1999/xlink" x="0px" y="0px"
	 viewBox="0 0 475.087 475.087" style="enable-background:new 0 0 475.087 475.087;" xml:space="preserve">
<g>
	<g>
		<g>
			<path d="M237.544,442.625c2.762,0,5-2.238,5-5V275.323c0-2.762-2.238-5-5-5c-2.761,0-5,2.238-5,5v162.302
				C232.544,440.387,234.783,442.625,237.544,442.625z"/>
			<path d="M273.655,442.625c2.762,0,5-2.238,5-5V275.323c0-2.762-2.238-5-5-5c-2.762,0-5,2.238-5,5v162.302
				C268.655,440.387,270.894,442.625,273.655,442.625z"/>
			<path d="M309.769,442.625c2.762,0,5-2.238,5-5V275.323c0-2.762-2.238-5-5-5c-2.762,0-5,2.238-5,5v162.302
				C304.769,440.387,307.007,442.625,309.769,442.625z"/>
			<path d="M345.881,442.625c2.762,0,5-2.238,5-5V275.323c0-2.762-2.238-5-5-5c-2.762,0-5,2.238-5,5v162.302
				C340.881,440.387,343.118,442.625,345.881,442.625z"/>
			<path d="M381.991,442.625c2.762,0,5-2.238,5-5V275.323c0-2.762-2.238-5-5-5c-2.762,0-5,2.238-5,5v162.302
				C376.991,440.387,379.23,442.625,381.991,442.625z"/>
			<path d="M93.095,442.625c2.761,0,5-2.238,5-5V275.323c0-2.762-2.239-5-5-5c-2.761,0-5,2.238-5,5v162.302
				C88.095,440.387,90.333,442.625,93.095,442.625z"/>
			<path d="M129.207,442.625c2.761,0,5-2.238,5-5V275.323c0-2.762-2.239-5-5-5c-2.761,0-5,2.238-5,5v162.302
				C124.207,440.387,126.445,442.625,129.207,442.625z"/>
			<path d="M165.319,442.625c2.761,0,5-2.238,5-5V275.323c0-2.762-2.239-5-5-5c-2.761,0-5,2.238-5,5v162.302
				C160.319,440.387,162.557,442.625,165.319,442.625z"/>
			<path d="M201.432,442.625c2.761,0,5-2.238,5-5V275.323c0-2.762-2.239-5-5-5s-5,2.238-5,5v162.302
				C196.432,440.387,198.671,442.625,201.432,442.625z"/>
			<path d="M425.543,0h-19.732c-0.005,0-0.011,0-0.016,0h-38.694c-0.005,0-0.011,0-0.016,0h-38.705c-0.005,0-0.011,0-0.016,0
				h-38.694c-0.005,0-0.011,0-0.016,0h-38.704c-0.005,0-0.011,0-0.016,0h-38.7c-0.009,0-0.017,0-0.026,0h-38.688
				c-0.005,0-0.01,0-0.016,0h-38.704c-0.005,0-0.01,0-0.016,0H96.091c-0.005,0-0.01,0-0.016,0H49.543c-2.761,0-5,2.239-5,5v27.05
				c0,2.761,2.239,5,5,5h183v16.869c0,2.761,2.239,5,5,5c2.762,0,5-2.239,5-5V37.05h183c2.762,0,5-2.239,5-5V5
				C430.543,2.239,428.306,0,425.543,0z M54.543,27.05V10h29.468l-17.05,17.05H54.543z M81.104,27.05L98.155,10h24.567l-17.05,17.05
				H81.104z M119.814,27.05L136.864,10h24.577l-17.05,17.05H119.814z M158.533,27.05L175.584,10h24.571l-17.043,17.05H158.533z
				 M221.822,27.05h-24.571L214.294,10h24.577L221.822,27.05z M235.963,27.05L253.012,10h24.578l-17.049,17.05H235.963z
				 M274.683,27.05L291.733,10h24.568l-17.051,17.05H274.683z M313.394,27.05L330.443,10h24.58l-17.051,17.05H313.394z
				 M352.115,27.05L369.164,10h24.568l-17.049,17.05H352.115z M420.543,27.05h-29.72L407.874,10h12.669V27.05z"/>
			<path d="M430.475,242.179c-0.026-0.196-0.062-0.388-0.11-0.576c-0.03-0.117-0.068-0.229-0.106-0.344
				c-0.066-0.192-0.138-0.381-0.226-0.562c-0.053-0.109-0.112-0.213-0.173-0.318c-0.099-0.171-0.201-0.336-0.319-0.494
				c-0.077-0.104-0.161-0.201-0.246-0.299c-0.128-0.146-0.26-0.284-0.402-0.415c-0.096-0.087-0.197-0.167-0.301-0.247
				c-0.16-0.125-0.326-0.238-0.501-0.343c-0.055-0.033-0.1-0.076-0.156-0.107l-163.382-89.178c0.955-2.844,1.48-5.883,1.48-9.045
				c0-2.761-2.238-5-5-5c-2.762,0-5,2.239-5,5c0,10.195-8.294,18.489-18.488,18.489c-5.175,0-9.854-2.144-13.213-5.582l15.608-8.519
				c2.424-1.323,3.316-4.36,1.993-6.784c-1.324-2.425-4.362-3.316-6.784-1.993l-15.611,8.521c-0.306-1.331-0.482-2.71-0.482-4.132
				c0-10.194,8.294-18.488,18.489-18.488c2.762,0,5-2.239,5-5V97.461h11.749c9.456,0,17.148-7.693,17.148-17.148
				c0-9.457-7.692-17.15-17.148-17.15h-33.498c-9.457,0-17.15,7.694-17.15,17.15s7.694,17.148,17.15,17.148h11.748v14.75
				c-13.332,2.372-23.489,14.038-23.489,28.04c0,3.162,0.525,6.201,1.48,9.045L47.148,238.474c-0.065,0.035-0.117,0.085-0.18,0.123
				c-0.154,0.093-0.3,0.194-0.442,0.303c-0.125,0.095-0.246,0.192-0.36,0.297c-0.12,0.11-0.229,0.227-0.337,0.348
				c-0.109,0.122-0.214,0.244-0.309,0.375c-0.095,0.129-0.178,0.265-0.261,0.402c-0.081,0.138-0.159,0.273-0.226,0.417
				c-0.07,0.148-0.127,0.3-0.183,0.455c-0.054,0.152-0.103,0.303-0.142,0.459c-0.038,0.151-0.065,0.306-0.089,0.462
				c-0.027,0.177-0.045,0.352-0.053,0.53c-0.004,0.075-0.023,0.144-0.023,0.218v227.224c0,2.762,2.239,5,5,5h376
				c2.762,0,5-2.238,5-5V242.863c0-0.094-0.022-0.182-0.027-0.274C430.509,242.451,430.493,242.315,430.475,242.179z
				 M220.795,87.462c-3.943,0-7.15-3.207-7.15-7.148c0-3.943,3.208-7.15,7.15-7.15h33.498c3.941,0,7.148,3.208,7.148,7.15
				c0,3.942-3.207,7.148-7.148,7.148H220.795z M215.337,158.069c5.226,6.5,13.236,10.672,22.207,10.672
				c8.97,0,16.98-4.172,22.206-10.672l146.191,79.794H69.14L215.337,158.069z M420.543,465.087h-366V247.863h366V465.087z"/>
		</g>
	</g>
</g>
<g>
</g>
<g>
</g>
<g>
</g>
<g>
</g>
<g>
</g>
<g>
</g>
<g>
</g>
<g>
</g>
<g>
</g>
<g>
</g>
<g>
</g>
<g>
</g>
<g>
</g>
<g>
</g>
<g>
</g>
</svg>
