<?xml version="1.0" encoding="utf-8"?>
<!-- Generator: Adobe Illustrator 19.0.0, SVG Export Plug-In . SVG Version: 6.00 Build 0)  -->
<svg version="1.1" id="Layer_1" xmlns="http://www.w3.org/2000/svg" xmlns:xlink="http://www.w3.org/1999/xlink" x="0px" y="0px"
	 viewBox="-63 65 512 512" style="enable-background:new -63 65 512 512;" xml:space="preserve">
<g>
	<rect x="74.6" y="219.3" width="236.9" height="14.3"/>
	<rect x="297.2" y="252.7" width="14.3" height="14.3"/>
	<rect x="74.6" y="252.7" width="14.3" height="14.3"/>
	<rect x="185.9" y="146.9" width="14.3" height="14.3"/>
	<rect x="219.3" y="146.9" width="14.3" height="14.3"/>
	<rect x="152.5" y="146.9" width="14.3" height="14.3"/>
	<rect x="119.1" y="146.9" width="14.3" height="14.3"/>
	<rect x="252.7" y="146.9" width="14.3" height="14.3"/>
	<path d="M398.3,548.4c-9.8,5.2-19.1,10.2-37.8,10.3l-5.6,0l67.4-202.1c1.2-3.5-0.5-7.3-3.8-8.8L356,319.7v-110
		c0-16.2-13.2-29.4-29.4-29.4h-20.7v-59.7c0-3.9-3.2-7.1-7.1-7.1h-98.6V69h-14.3v44.5H87.3c-3.9,0-7.1,3.2-7.1,7.1v59.7H59.4
		c-16.2,0-29.4,13.2-29.4,29.4v110l-62.6,28.2c-3.3,1.5-5,5.3-3.8,8.8L31,558.8l-5.6,0c-18.7-0.1-27.9-5.1-37.8-10.3
		c-9.9-5.3-21-11.2-41.1-11.9v14.3c16.5,0.7,25.2,5.3,34.4,10.2c10.5,5.6,22.4,12,45.1,12c6,0,11.1-0.4,15.7-1.2
		c13-2,21.7-6.7,29.4-10.8c9.9-5.3,19.3-10.3,38.3-10.3c19.1,0,28.5,5,38.4,10.3c10.5,5.6,22.4,12,45.1,12s34.6-6.4,45.1-12
		c9.9-5.3,19.3-10.3,38.4-10.3c19.1,0,28.5,5,38.4,10.3c7.7,4.1,16.4,8.7,29.6,10.8c4.5,0.8,9.6,1.2,15.6,1.2
		c22.7,0,34.6-6.4,45.1-12c9.2-4.9,17.9-9.6,34.4-10.2v-14.3C419.3,537.2,408.2,543.2,398.3,548.4z M406.8,358.2l-10.5,31.6
		l-196.1-90.1v-34.5L406.8,358.2z M94.4,127.8h197.2v52.5H94.4V127.8z M44.3,205.7h0.5c1.8-6.5,7.8-11.1,14.6-11.1h267.1
		c8.3,0,15.1,6.8,15.1,15.1v103.6l-145.8-65.6c-0.9-0.4-1.9-0.6-2.9-0.6c-1,0-2,0.2-2.9,0.6L44.3,313.3L44.3,205.7z M-20.8,358.2
		l206.7-93v34.5l-196.1,90.1L-20.8,358.2z M340.7,556.7l-3.8-1.2c-5.8-1.9-10.5-4.4-15.4-7c-10.5-5.6-22.5-11.9-45.1-11.9
		c-22.6,0-34.6,6.4-45.1,12c-9.9,5.3-19.3,10.3-38.4,10.3c-19.1,0-28.5-5-38.4-10.3c-10.5-5.6-22.4-12-45.1-12
		c-22.6,0-34.5,6.3-45,11.9c-4.9,2.6-9.6,5.1-15.3,7l-3.8,1.2L-5.7,403.5l191.6-88v135.1h14.3V315.4l191.6,88L340.7,556.7z"/>
</g>
</svg>
