<?xml version="1.0" encoding="iso-8859-1"?>
<!-- Generator: Adobe Illustrator 19.0.0, SVG Export Plug-In . SVG Version: 6.00 Build 0)  -->
<svg version="1.1" id="Layer_1" xmlns="http://www.w3.org/2000/svg" xmlns:xlink="http://www.w3.org/1999/xlink" x="0px" y="0px"
	 viewBox="0 0 511.995 511.995" style="enable-background:new 0 0 511.995 511.995;" xml:space="preserve">
<g>
	<g>
		<g>
			<path d="M479.871,41.195C479.137,35.922,474.637,32,469.309,32H405.31V10.672C405.31,4.781,400.544,0,394.654,0H117.311
				c-5.891,0-10.664,4.781-10.664,10.672V32H42.68c-5.32,0-9.828,3.922-10.562,9.195c-0.188,1.375-4.594,34.133,4.852,72.835
				c12.39,50.727,42.875,87.851,88.28,107.616c6.695,12.062,15.109,23.258,25.132,33.281c20.508,20.508,45.921,34.305,73.593,40.32
				v56.748h-32c-17.641,0-32,14.359-32,32h-21.328c-5.891,0-10.672,4.781-10.672,10.672v106.672c0,5.875,4.781,10.656,10.672,10.656
				h234.662c5.891,0,10.672-4.781,10.672-10.656V394.668c0-5.891-4.781-10.672-10.672-10.672h-21.328c0-17.641-14.359-32-32-32
				h-31.999v-56.748c27.671-6.016,53.093-19.812,73.593-40.32c10.016-10.016,18.422-21.211,25.125-33.266
				c45.422-19.758,75.937-56.89,88.327-107.632C484.464,75.328,480.074,42.57,479.871,41.195z M57.859,109.632
				c-5.797-23.343-5.914-44.671-5.352-56.296h54.14v95.999c0,14.141,1.961,27.969,5.734,41.203
				C85.007,172.397,66.71,145.288,57.859,109.632z M362.653,405.34v85.328H149.311V405.34H362.653z M319.981,373.34
				c5.875,0,10.672,4.781,10.672,10.656H181.311c0-5.875,4.789-10.656,10.664-10.656H319.981z M245.31,351.996v-53.701
				c3.531,0.234,7.094,0.375,10.664,0.375c3.579,0,7.133-0.141,10.672-0.375v53.701H245.31z M383.981,149.335
				c0,70.577-57.422,128.007-128.007,128.007c-70.577,0-127.999-57.43-127.999-128.007V21.336h256.006V149.335z M454.137,109.632
				c-8.859,35.672-27.171,62.789-54.562,80.93c3.781-13.234,5.734-27.078,5.734-41.227V53.336h54.171
				C460.043,64.969,459.934,86.289,454.137,109.632z"/>
			<path d="M210.537,159.593l-7.078,41.249c-0.688,4,0.961,8.047,4.242,10.43c1.859,1.352,4.062,2.039,6.273,2.039
				c1.695,0,3.398-0.406,4.961-1.227l37.039-19.476l37.054,19.476c3.594,1.891,7.938,1.578,11.219-0.812
				c3.297-2.383,4.938-6.43,4.25-10.43l-7.078-41.249l29.969-29.211c2.906-2.836,3.953-7.07,2.703-10.93
				c-1.25-3.867-4.594-6.68-8.61-7.266l-41.421-6.016l-18.515-37.522c-1.797-3.641-5.508-5.945-9.571-5.945
				c-4.055,0-7.766,2.305-9.562,5.945l-18.523,37.522l-41.406,6.016c-4.023,0.586-7.359,3.398-8.617,7.266
				c-1.25,3.859-0.203,8.094,2.703,10.93L210.537,159.593z M236.506,126.475c3.477-0.5,6.476-2.688,8.031-5.836l11.438-23.172
				l11.438,23.172c1.555,3.148,4.562,5.336,8.039,5.836l25.577,3.719l-18.515,18.039c-2.516,2.453-3.656,5.977-3.062,9.438
				l4.375,25.477l-22.883-12.031c-1.555-0.812-3.258-1.219-4.969-1.219c-1.703,0-3.406,0.406-4.961,1.219l-22.875,12.031
				l4.367-25.477c0.594-3.461-0.555-6.984-3.062-9.438l-18.508-18.039L236.506,126.475z"/>
			<path d="M181.311,458.668h149.342c5.891,0,10.656-4.766,10.656-10.672c0-5.891-4.766-10.656-10.656-10.656H181.311
				c-5.891,0-10.664,4.766-10.664,10.656C170.647,453.902,175.42,458.668,181.311,458.668z"/>
		</g>
	</g>
</g>
<g>
</g>
<g>
</g>
<g>
</g>
<g>
</g>
<g>
</g>
<g>
</g>
<g>
</g>
<g>
</g>
<g>
</g>
<g>
</g>
<g>
</g>
<g>
</g>
<g>
</g>
<g>
</g>
<g>
</g>
</svg>
