<?xml version="1.0" encoding="utf-8"?>
<!-- Generator: Adobe Illustrator 19.0.0, SVG Export Plug-In . SVG Version: 6.00 Build 0)  -->
<svg version="1.1" id="Layer_1" xmlns="http://www.w3.org/2000/svg" xmlns:xlink="http://www.w3.org/1999/xlink" x="0px" y="0px"
	 viewBox="0 0 64 64" style="enable-background:new 0 0 64 64;" xml:space="preserve">
<style type="text/css">
	.st0{fill:none;stroke:#000000;stroke-width:2;stroke-linecap:round;stroke-miterlimit:10;}
</style>
<path id="XMLID_23_" d="M23,64c-0.6,0-1-0.4-1-1V20H2v43c0,0.5-0.4,1-1,1s-1-0.4-1-1V18h24v45C24,63.6,23.6,64,23,64z"/>
<g id="XMLID_16_">
	<path id="XMLID_38_" d="M15,6c0.6,0,1,0.4,1,1s-0.4,1-1,1h-4c-0.6,0-1-0.4-1-1s0.4-1,1-1H15 M15,4h-4C9.3,4,8,5.3,8,7s1.3,3,3,3h4
		c1.7,0,3-1.3,3-3S16.7,4,15,4L15,4z"/>
</g>
<g id="XMLID_17_">
	<path id="XMLID_40_" d="M14,10v8h-2v-8H14 M16,8h-6v12h6V8L16,8z"/>
</g>
<path id="XMLID_15_" class="st0" d="M28,22c0,0-0.3,2,2.9,2c1.4,0,3-2,4.9-2c1.6,0,3.2,2,4.9,2c1.6,0,3.3-2,4.9-2c1.9,0,3.5,2,4.9,2
	"/>
<path id="XMLID_20_" class="st0" d="M28,27c0,0-0.3,2,2.9,2c1.4,0,3-2,4.9-2c1.6,0,3.2,2,4.9,2c1.6,0,3.3-2,4.9-2c1.9,0,3.5,2,4.9,2
	"/>
<path id="XMLID_25_" class="st0" d="M28,38c0,0-0.3,2,2.9,2c1.4,0,3-2,4.9-2c1.6,0,3.2,2,4.9,2c1.6,0,3.3-2,4.9-2c1.9,0,3.5,2,4.9,2
	"/>
<path id="XMLID_27_" class="st0" d="M28,49c0,0-0.3,2,2.9,2c1.4,0,3-2,4.9-2c1.6,0,3.2,2,4.9,2c1.6,0,3.3-2,4.9-2c1.9,0,3.5,2,4.9,2
	"/>
<path id="XMLID_21_" class="st0" d="M28,32.7c0,0-0.3,2,2.9,2c1.4,0,3-2,4.9-2c1.6,0,3.2,2,4.9,2c1.6,0,3.3-2,4.9-2
	c1.9,0,3.5,2,4.9,2"/>
<path id="XMLID_28_" class="st0" d="M28,43.3c0,0-0.3,2,2.9,2c1.4,0,3-2,4.9-2c1.6,0,3.2,2,4.9,2c1.6,0,3.3-2,4.9-2
	c1.9,0,3.5,2,4.9,2"/>
<path id="XMLID_24_" class="st0" d="M28,54c0,0-0.3,2,2.9,2c1.4,0,3-2,4.9-2c1.6,0,3.2,2,4.9,2c1.6,0,3.3-2,4.9-2c1.9,0,3.5,2,4.9,2
	"/>
<path id="XMLID_18_" d="M63,64H23c-0.6,0-1-0.4-1-1l0,0c0-0.6,0.4-1,1-1h40c0.6,0,1,0.4,1,1l0,0C64,63.6,63.6,64,63,64z"/>
<polyline id="XMLID_14_" class="st0" points="54,24 58,20 62,24 "/>
<polyline id="XMLID_26_" class="st0" points="54,56 58,60 62,56 "/>
<line id="XMLID_22_" class="st0" x1="58" y1="20" x2="58" y2="58"/>
</svg>
