<?xml version="1.0" encoding="utf-8"?>
<!-- Generator: Adobe Illustrator 19.0.0, SVG Export Plug-In . SVG Version: 6.00 Build 0)  -->
<svg version="1.1" id="Layer_1" xmlns="http://www.w3.org/2000/svg" xmlns:xlink="http://www.w3.org/1999/xlink" x="0px" y="0px"
	 viewBox="0 0 640 640" style="enable-background:new 0 0 640 640;" xml:space="preserve">
<g id="XMLID_2_">
	<path id="XMLID_32_" d="M583.4,395.3l-64.6-218c-0.1-0.7-0.3-1.4-0.6-2.1l-9-30.5l-83,26.7L374.5,23.1L272,54L256.6,9.1
		c-1.1-3.1-4.5-4.8-7.6-3.7c-3.1,1.1-4.8,4.5-3.7,7.6l36,105L63.8,256.4l101.6,284.4L340,579.6l-15.9,47.8c-1,3.1,0.7,6.5,3.8,7.6
		c0.6,0.2,1.3,0.3,1.9,0.3c2.5,0,4.9-1.6,5.7-4.1l56.6-169.9L583.4,395.3z M381.7,454.7l-37.8,113.5l-169.4-37.6L78.3,261.4
		l213.4-135.8l0,0c2.3-1.5,3.4-4.3,2.5-7l-18.3-53.3l39.9-12l-24.9,24.9c-2.3,2.3-2.3,6.1,0,8.5c1.2,1.2,2.7,1.8,4.2,1.8
		s3.1-0.6,4.2-1.8L340,46.1c0,0,0-0.1,0.1-0.1l23.7-7.1l-64.5,64.5c-2.3,2.3-2.3,6.1,0,8.5c1.2,1.2,2.7,1.8,4.2,1.8s3.1-0.6,4.2-1.8
		l63-63l4.6,13.3L260.7,176.8c-2.3,2.3-2.3,6.1,0,8.5c1.2,1.2,2.7,1.8,4.2,1.8s3.1-0.6,4.2-1.8L379.7,74.8l4.3,12.5l-86.5,86.5
		c-2.3,2.3-2.3,6.1,0,8.5c1.2,1.2,2.7,1.8,4.2,1.8s3.1-0.6,4.2-1.8l82.4-82.4l4.4,12.6l-56.9,56.9c-2.3,2.3-2.3,6.1,0,8.5
		c1.2,1.2,2.7,1.8,4.2,1.8s3.1-0.6,4.2-1.8l52.8-52.8l4.4,12.6L374,165.3c-2.3,2.3-2.3,6.1,0,8.5c1.2,1.2,2.7,1.8,4.2,1.8
		s3.1-0.6,4.2-1.8l23.5-23.5l4.7,13.4L384,190.3c-2.3,2.3-2.3,6.1,0,8.5c1.2,1.2,2.7,1.8,4.2,1.8s3.1-0.6,4.2-1.8l22.6-22.6
		l3.6,10.3l7.7-2.5l-33.1,33.1c-2.3,2.3-2.3,6.1,0,8.5c1.2,1.2,2.7,1.8,4.2,1.8c1.5,0,3.1-0.6,4.2-1.8l48.7-48.7
		c0.3-0.3,0.5-0.6,0.7-0.9l26.8-8.6l-75.7,75.7c-2.3,2.3-2.3,6.1,0,8.5c1.2,1.2,2.7,1.8,4.2,1.8c1.5,0,3.1-0.6,4.2-1.8l90.8-90.8
		l4.6,15.4l-94.8,93.8c-2.4,2.3-2.4,6.1,0,8.5c1.2,1.2,2.7,1.8,4.3,1.8c1.5,0,3.1-0.6,4.2-1.7l90.2-89.3l4.6,15.5L389.9,328.5
		c-2.4,2.3-2.4,6.1,0,8.5c1.2,1.2,2.7,1.8,4.3,1.8c1.5,0,3.1-0.6,4.2-1.7l120-119l4.1,13.9L327.3,426.1c-2.3,2.3-2.4,6.1,0,8.5
		c1.2,1.2,2.7,1.8,4.3,1.8c1.5,0,3.1-0.6,4.2-1.7L526.3,245l4.4,14.7L336.5,452.9c-2.3,2.3-2.4,6.1,0,8.5c1.2,1.2,2.7,1.8,4.3,1.8
		c1.5,0,3.1-0.6,4.2-1.7l189.6-188.6l4.6,15.5L400.9,425.5c-2.4,2.3-2.4,6.1,0,8.5c1.2,1.2,2.7,1.8,4.3,1.8c1.5,0,3.1-0.6,4.2-1.7
		L543,301.3l4.4,14.7l-95.2,94.2c-2.4,2.3-2.4,6.1,0,8.5c1.2,1.2,2.7,1.8,4.3,1.8c1.5,0,3.1-0.6,4.2-1.7l90.6-89.7l4.4,14.7
		l-44.7,43.7c-2.4,2.3-2.4,6.1-0.1,8.5c1.2,1.2,2.7,1.8,4.3,1.8c1.5,0,3-0.6,4.2-1.7l40.1-39.3l4.1,13.9l-10.8,9.9
		c-2.4,2.2-2.6,6-0.3,8.5c1.2,1.3,2.8,1.9,4.4,1.9c1.5,0,2.9-0.5,4.1-1.6l6.4-5.9l1.3,4.3l-183.2,63.2l0,0
		C383.7,451.5,382.3,452.9,381.7,454.7z"/>
	<path id="XMLID_35_" d="M348.8,304.2l51-16.2l-33.9-106.7l-62.5,19.9l12.8,40.3l-51,16.2l33.9,106.7l62.5-19.9L348.8,304.2z
		 M318.5,208.9l39.6-12.6l26.7,83.9l-39.6,12.6l-1.1-3.5l-16.3-51.4l0,0L318.5,208.9z M280.3,265.5l39.6-12.6l17.5,54.9l0,0
		l9.2,28.9L307,349.3L280.3,265.5z"/>
</g>
</svg>
