<?xml version="1.0" encoding="iso-8859-1"?>
<!-- Generator: Adobe Illustrator 19.0.0, SVG Export Plug-In . SVG Version: 6.00 Build 0)  -->
<svg version="1.1" id="Capa_1" xmlns="http://www.w3.org/2000/svg" xmlns:xlink="http://www.w3.org/1999/xlink" x="0px" y="0px"
	 viewBox="0 0 483.433 483.433" style="enable-background:new 0 0 483.433 483.433;" xml:space="preserve">
<g>
	<g>
		<g>
			<path d="M242.885,386.702h-14.976c-2.761,0-5,2.238-5,5c0,2.762,2.239,5,5,5h14.976c2.762,0,5-2.238,5-5
				C247.885,388.94,245.647,386.702,242.885,386.702z"/>
			<path d="M311.448,374.095c-3.451-2.057-7.479-3.242-11.781-3.242h-13.1V332.21c0-0.014,0.004-0.025,0.004-0.039
				c0-6.711-2.731-12.796-7.142-17.203c-4.408-4.408-10.494-7.138-17.206-7.138h-44.287v-26.094c0-2.762-2.239-5-5-5H20.135
				c-2.761,0-5,2.238-5,5v157.135v17.285c0,2.762,2.239,5,5,5h21.316c2.355,12.66,13.477,22.277,26.809,22.277
				c13.332,0,24.453-9.617,26.808-22.277h125.375c2.355,12.66,13.477,22.277,26.809,22.277c13.332,0,24.453-9.617,26.809-22.277
				h43.701c2.762,0,5-2.238,5-5v-17.283v-0.002v-44.904c0-0.007,0.002-0.013,0.002-0.02
				C322.764,385.514,318.217,378.126,311.448,374.095z M217.936,317.83h44.25c0.014,0,0.025,0.004,0.039,0.004
				c3.954,0,7.539,1.607,10.137,4.202c2.597,2.597,4.205,6.181,4.205,10.134v38.686h-58.631V317.83z M41.452,451.156H25.135v-7.285
				h18.784C42.771,446.138,41.931,448.583,41.452,451.156z M85.535,456.158c0,0.002,0,0.003,0,0.005
				c-0.003,9.523-7.751,17.271-17.275,17.271c-9.526,0-17.276-7.75-17.276-17.276s7.75-17.276,17.276-17.276
				c9.523,0,17.271,7.746,17.275,17.27C85.535,456.154,85.535,456.156,85.535,456.158z M83.954,433.869L83.954,433.869
				c-4.442-3.138-9.854-4.988-15.694-4.988c-5.841,0-11.254,1.852-15.697,4.99H25.135V286.736h182.801V312.8
				c0,0.01-0.003,0.02-0.003,0.029c0,0.009,0.003,0.02,0.003,0.029v62.977c0,0.007-0.002,0.013-0.002,0.02
				c0,0.007,0.002,0.013,0.002,0.02v57.994H83.954z M220.444,451.156H95.068c-0.479-2.573-1.319-5.019-2.468-7.285h120.334h9.978
				C221.763,446.138,220.923,448.583,220.444,451.156z M247.252,473.434c-9.526,0-17.276-7.75-17.276-17.276
				s7.75-17.276,17.276-17.276c9.525,0,17.275,7.75,17.275,17.276S256.778,473.434,247.252,473.434z M262.95,433.871
				c-4.443-3.139-9.856-4.99-15.697-4.99s-11.254,1.852-15.697,4.99h-13.619v-53.016h58.631v53.016H262.95z M312.762,451.156H274.06
				c-0.479-2.573-1.319-5.019-2.468-7.285h9.957c0.007,0,0.013,0.002,0.02,0.002h31.193V451.156z M312.763,433.871L312.763,433.871
				h-26.194v-53.019h13.087c0.003,0,0.007,0.001,0.01,0.001c2.084,0,4.049,0.502,5.8,1.371c4.316,2.144,7.297,6.586,7.297,11.722
				V433.871z"/>
			<path d="M369.328,214.423H102.465c-23.85,0-43.254-19.403-43.254-43.253s19.404-43.253,43.254-43.253h215.299
				c2.762,0,5-2.239,5-5c0-2.761-2.238-5-5-5H102.465c-29.364,0-53.254,23.889-53.254,53.253s23.89,53.253,53.254,53.253h266.862
				c49.059,0,88.971,39.912,88.971,88.97c0,49.058-39.912,88.97-88.971,88.97h-30.966c-2.762,0-5,2.238-5,5c0,2.762,2.238,5,5,5
				h30.966c54.572,0,98.971-44.397,98.971-98.97S423.9,214.423,369.328,214.423z"/>
			<path d="M379.934,164.698c0.889,1.564,2.549,2.531,4.348,2.531c1.799,0,3.459-0.966,4.348-2.531l42.228-74.348
				c6.938-9.728,10.604-21.193,10.604-33.176C441.462,25.648,415.811,0,384.28,0c-31.526,0-57.175,25.648-57.175,57.174
				c0,11.988,3.66,23.446,10.59,33.157L379.934,164.698z M384.28,10c26.016,0,47.182,21.162,47.182,47.174
				c0,9.902-3.032,19.375-8.771,27.405c-0.14,0.183-0.27,0.377-0.387,0.584l-38.021,66.942l-38.022-66.942
				c-0.089-0.157-0.187-0.308-0.291-0.454c-5.799-8.045-8.863-17.566-8.863-27.535C337.105,31.162,358.267,10,384.28,10z"/>
			<path d="M384.282,91.593c18.259,0,33.114-14.854,33.114-33.113c0-18.259-14.855-33.114-33.114-33.114
				c-18.259,0-33.115,14.854-33.115,33.113C351.167,76.738,366.023,91.593,384.282,91.593z M384.282,35.365
				c12.745,0,23.114,10.369,23.114,23.114c0,12.745-10.369,23.113-23.114,23.113c-12.745,0-23.115-10.368-23.115-23.113
				C361.167,45.734,371.537,35.365,384.282,35.365z"/>
		</g>
	</g>
</g>
<g>
</g>
<g>
</g>
<g>
</g>
<g>
</g>
<g>
</g>
<g>
</g>
<g>
</g>
<g>
</g>
<g>
</g>
<g>
</g>
<g>
</g>
<g>
</g>
<g>
</g>
<g>
</g>
<g>
</g>
</svg>
