<?xml version="1.0" encoding="iso-8859-1"?>
<!-- Generator: Adobe Illustrator 19.0.0, SVG Export Plug-In . SVG Version: 6.00 Build 0)  -->
<svg version="1.1" id="Capa_1" xmlns="http://www.w3.org/2000/svg" xmlns:xlink="http://www.w3.org/1999/xlink" x="0px" y="0px"
	 viewBox="0 0 409.621 409.621" style="enable-background:new 0 0 409.621 409.621;" xml:space="preserve">
<g>
	<g>
		<path d="M317.456,180.912c-11.494,0-20.844,9.38-20.844,20.91c0,2.831,2.294,5.12,5.12,5.12c2.826,0,5.12-2.289,5.12-5.12
			c0-5.883,4.756-10.67,10.604-10.67c5.847,0,10.604,4.787,10.604,10.67c0,2.831,2.294,5.12,5.12,5.12c2.826,0,5.12-2.289,5.12-5.12
			C338.299,190.292,328.95,180.912,317.456,180.912z"/>
	</g>
</g>
<g>
	<g>
		<path d="M317.456,73.014c-11.494,0-20.844,9.38-20.844,20.905c0,2.831,2.294,5.12,5.12,5.12c2.826,0,5.12-2.289,5.12-5.12
			c0-5.878,4.756-10.665,10.604-10.665c5.847,0,10.604,4.787,10.604,10.665c0,2.831,2.294,5.12,5.12,5.12
			c2.826,0,5.12-2.289,5.12-5.12C338.299,82.393,328.95,73.014,317.456,73.014z"/>
	</g>
</g>
<g>
	<g>
		<path d="M409.365,215.647c0.374-1.147,0.328-2.391-0.123-3.507c-9.549-23.511-22.994-40.576-37.857-52.992
			c28.575-23.414,37.601-50.222,37.985-51.4c0.374-1.147,0.328-2.391-0.123-3.507C370.13,7.923,265.738,19.156,265.139,19.228
			c-1.669,0.051-17.183,0.625-38.902,5.227C186.204-9.644,140.903-0.812,122.384,8.783c-10.163,5.258-15.416,11.474-14.792,17.5
			c0.251,2.437,1.731,6.81,8.791,8.776c15.319,4.26,27.034,13.906,32.727,19.354c-16.881,10.394-33.178,23.813-46.915,41.242
			C98.57,87.083,91.996,73.5,82.135,60.07C60.667,30.855,33.879,16.735,4.705,19.243c-2.606,0.22-4.623,2.376-4.685,4.992
			c-0.051,2.437-0.835,56.699,30.295,81.925c-6.518,5.294-12.047,12.288-16.584,20.782c-2.985-0.097-5.99-0.056-9.032,0.205
			c-2.606,0.22-4.623,2.376-4.685,4.992c-0.051,2.437-0.835,56.699,30.295,81.925c-6.6,5.356-12.196,12.457-16.763,21.105
			c-2.924-0.087-5.873-0.046-8.852,0.215c-2.606,0.22-4.623,2.376-4.685,4.992c-0.051,2.437-0.84,56.694,30.295,81.92
			c-31.125,25.216-30.336,79.478-30.285,81.915c0.056,2.616,2.079,4.772,4.685,4.992c2.207,0.189,4.398,0.287,6.574,0.287
			c26.629,0,51.011-14.106,70.851-41.108c9.866-13.425,16.435-27.013,20.065-35.579c57.165,72.509,158.51,76.293,163.072,76.426
			c0.23,0,0.451,0,0.681,0c114.35,0,143.14-84.495,143.416-85.35c0.374-1.147,0.328-2.391-0.123-3.507
			c-9.59-23.613-23.107-40.73-38.052-53.161C399.918,243.755,408.981,216.829,409.365,215.647z M268.068,30.108
			c0.205-0.276,0.276-0.594,0.415-0.891c15.606-0.983,97.157-2.058,130.514,77.046c-2.422,6.129-12.268,27.791-35.973,46.474
			c-44.595-31.319-97.469-25.656-97.894-25.61c-1.106,0.031-8.299,0.297-19.354,1.807C236.447,74.16,267.745,30.548,268.068,30.108z
			 M235.715,238.748c-3.005,0.527-6.164,1.131-9.487,1.833c-40.028-34.099-85.33-25.252-103.839-15.672
			c-1.536,0.794-2.918,1.618-4.229,2.452c-3.927-4.244-7.593-8.714-10.998-13.338c43.791-59.392,121.052-72.899,148.598-75.868
			C246.917,152.712,227.548,191.352,235.715,238.748z M213.596,243.581c-16.922,4.419-36.26,11.192-55.316,21.617
			c-5.443-5.617-19.492-18.411-39.153-23.875c-0.466-0.128-0.814-0.256-1.065-0.369c1.219-1.997,6.303-6.687,17.326-10.44
			C145.48,227.09,179.425,218.555,213.596,243.581z M119.122,133.092c-0.466-0.128-0.814-0.256-1.065-0.369
			c1.219-1.997,6.303-6.687,17.326-10.44c10.097-3.425,44.042-11.965,78.213,13.066c-16.917,4.419-36.255,11.197-55.317,21.617
			C152.837,151.355,138.788,138.555,119.122,133.092z M119.122,25.188c-0.466-0.123-0.814-0.256-1.065-0.369
			c1.219-1.997,6.303-6.687,17.326-10.435c10.102-3.446,44.037-11.965,78.208,13.061c-16.916,4.419-36.255,11.197-55.316,21.622
			C152.837,43.451,138.783,30.656,119.122,25.188z M255.765,30.251c-8.817,14.52-28.119,53.023-20.096,100.275
			c-2.99,0.527-6.134,1.126-9.436,1.823c-40.028-34.109-85.335-25.257-103.844-15.667c-1.608,0.835-3.052,1.7-4.408,2.575
			c-3.86-4.188-7.46-8.586-10.813-13.133C150.953,46.727,228.214,33.221,255.765,30.251z M102.2,116.662
			c2.555,3.236,5.279,6.359,8.079,9.405c-2.002,2.678-2.97,5.417-2.688,8.125c0.251,2.437,1.731,6.81,8.791,8.776
			c15.319,4.255,27.034,13.901,32.727,19.354c-16.881,10.388-33.178,23.813-46.915,41.237c-3.625-8.566-10.199-22.154-20.065-35.579
			c-2.038-2.775-4.142-5.371-6.277-7.875C89.242,144.371,97.859,126.927,102.2,116.662z M41.841,110.543
			c1.536-0.927,2.478-2.591,2.478-4.383s-0.942-3.461-2.473-4.383c-26.87-16.205-30.904-58.353-31.493-72.571
			c0.302,0,0.604-0.005,0.906-0.005c53.412,0,79.995,65.92,84.07,76.964c-2.181,5.944-10.798,27.581-26.455,46.367
			c-13.312-13.189-28.155-21.407-43.991-24.381C29.568,120.517,35.216,114.537,41.841,110.543z M41.841,218.447
			c1.536-0.927,2.478-2.591,2.478-4.383s-0.942-3.461-2.478-4.383c-26.87-16.2-30.899-58.347-31.488-72.566
			c0.302,0,0.604-0.005,0.906-0.005c53.412,0,79.995,65.915,84.07,76.959c-2.186,5.965-10.854,27.725-26.609,46.551
			c-13.322-13.153-28.17-21.335-44.006-24.269C29.435,228.569,35.139,222.487,41.841,218.447z M11.259,399.24
			c-0.302,0-0.604-0.005-0.906-0.005c0.589-14.213,4.623-56.361,31.493-72.566c1.536-0.927,2.473-2.591,2.473-4.383
			c0-1.792-0.937-3.456-2.478-4.383c-26.87-16.2-30.899-58.348-31.488-72.566c0.302,0,0.604-0.005,0.906-0.005
			c53.33,0,79.933,65.761,84.07,76.954C91.192,333.483,64.594,399.24,11.259,399.24z M82.13,276.206
			c-2.084-2.836-4.234-5.489-6.415-8.038c13.471-15.77,22.129-33.306,26.486-43.607c2.596,3.292,5.361,6.461,8.212,9.554
			c-2.099,2.734-3.108,5.54-2.821,8.305c0.251,2.437,1.731,6.81,8.791,8.776c15.319,4.255,27.034,13.901,32.727,19.354
			c-16.881,10.388-33.178,23.813-46.915,41.237C98.57,303.219,91.996,289.63,82.13,276.206z M107.07,322.291
			c43.822-59.525,121.303-72.96,148.787-75.914c-11.725,19.732-42.778,83.881-0.2,151.813
			C228.455,395.266,150.917,381.852,107.07,322.291z M398.997,322.393c-2.028,5.14-9.247,21.207-25.513,37.279
			c-17.92,17.71-50.688,38.692-105.201,39.255c-0.056-0.097-0.067-0.21-0.128-0.302c-53.699-77.517-2.294-149.366-0.082-152.387
			c0.21-0.282,0.282-0.609,0.425-0.911C284.283,244.165,365.251,242.301,398.997,322.393z M362.809,260.82
			c-44.549-31.145-97.249-25.508-97.674-25.457c-1.106,0.031-8.279,0.292-19.308,1.802c-9.508-54.922,21.924-98.714,22.246-99.154
			c0.205-0.282,0.282-0.604,0.42-0.906c15.78-1.167,96.747-3.041,130.504,77.051C396.539,220.321,386.555,242.183,362.809,260.82z"
			/>
	</g>
</g>
<g>
	<g>
		<path d="M317.456,289.149c-11.494,0-20.844,9.38-20.844,20.905c0,2.831,2.294,5.12,5.12,5.12c2.826,0,5.12-2.289,5.12-5.12
			c0-5.878,4.756-10.665,10.604-10.665c5.847,0,10.604,4.787,10.604,10.665c0,2.831,2.294,5.12,5.12,5.12
			c2.826,0,5.12-2.289,5.12-5.12C338.299,298.529,328.95,289.149,317.456,289.149z"/>
	</g>
</g>
<g>
</g>
<g>
</g>
<g>
</g>
<g>
</g>
<g>
</g>
<g>
</g>
<g>
</g>
<g>
</g>
<g>
</g>
<g>
</g>
<g>
</g>
<g>
</g>
<g>
</g>
<g>
</g>
<g>
</g>
</svg>
