<?xml version="1.0" encoding="iso-8859-1"?>
<!-- Generator: Adobe Illustrator 19.0.0, SVG Export Plug-In . SVG Version: 6.00 Build 0)  -->
<svg version="1.1" id="Capa_1" xmlns="http://www.w3.org/2000/svg" xmlns:xlink="http://www.w3.org/1999/xlink" x="0px" y="0px"
	 viewBox="0 0 512 512" style="enable-background:new 0 0 512 512;" xml:space="preserve">
<g>
	<g>
		<path d="M256,34.123c-68.925,0-125,56.075-125,125s56.075,125,125,125s125-56.075,125-125S324.925,34.123,256,34.123z
			 M256,254.123c-52.383,0-95-42.617-95-95s42.617-95,95-95s95,42.617,95,95S308.383,254.123,256,254.123z"/>
	</g>
</g>
<g>
	<g>
		<polygon points="276,199.123 276,89.123 221,89.123 221,119.123 246,119.123 246,199.123 221,199.123 221,229.123 301,229.123 
			301,199.123 		"/>
	</g>
</g>
<g>
	<g>
		<path d="M271.877,378.167c2.574-3.366,4.123-7.557,4.123-12.113c0-11.028-8.972-20-20-20s-20,8.972-20,20
			c0,4.556,1.548,8.747,4.123,12.113c-5.899,41.15-41.367,72.887-84.123,72.887v30c42.793,0,80.197-23.497,100-58.265
			c19.803,34.768,57.207,58.265,100,58.265v-30C313.244,451.055,277.776,419.318,271.877,378.167z"/>
	</g>
</g>
<g>
	<g>
		<path d="M305.655,306.042c-16.44,1.888-33.94,25.45-28.6,51.819C303.402,357.861,317.339,333.055,305.655,306.042z"/>
	</g>
</g>
<g>
	<g>
		<path d="M278.09,368.389c-0.001,27.166,25.437,46.791,59.022,33.278C335.527,389.054,315.527,361.179,278.09,368.389z"/>
	</g>
</g>
<g>
	<g>
		<path d="M346.4,285.517c-19.29,9.871-22.123,39.954-12.17,57.901C357.455,337.138,366.36,307.888,346.4,285.517z"/>
	</g>
</g>
<g>
	<g>
		<path d="M338.31,353.18c6.967,23.208,33.717,36.708,66.19,14.545C397.86,353.471,370.86,336.388,338.31,353.18z"/>
	</g>
</g>
<g>
	<g>
		<path d="M379.476,253.901c-19.512,20.154-4.199,51.216,5.222,58.995C408.652,297.554,401.694,267.638,379.476,253.901z"/>
	</g>
</g>
<g>
	<g>
		<path d="M391.452,321.039c13.658,22.379,49.241,23.765,67.509-5.365C439.527,297.221,408.527,303.138,391.452,321.039z"/>
	</g>
</g>
<g>
	<g>
		<path d="M401.858,214.117c-9.665,15.521,0.502,45.188,22.192,54.834C441.194,246.971,427.777,220.805,401.858,214.117z"/>
	</g>
</g>
<g>
	<g>
		<path d="M432.88,274.779c16.73,15.025,50.397,13.192,63.059-24.848C468.777,235.138,438.61,260.138,432.88,274.779z"/>
	</g>
</g>
<g>
	<g>
		<path d="M411.554,169.544c-3.36,11.677,6.39,40.01,37.372,45.939C460.11,185.971,433.86,168.305,411.554,169.544z"/>
	</g>
</g>
<g>
	<g>
		<path d="M459.077,218.464c16.949,8.924,52.94-0.243,52.923-42.261C487.194,171.555,462.777,192.483,459.077,218.464z"/>
	</g>
</g>
<g>
	<g>
		<path d="M407.934,123.918c2.781,25.762,33.906,35.824,49.022,33.126C458.902,129.157,434.652,115.18,407.934,123.918z"/>
	</g>
</g>
<g>
	<g>
		<path d="M505.985,101.123c-28.083,2.932-41.271,33.557-38.45,55.813C501.943,160.471,514.36,125.638,505.985,101.123z"/>
	</g>
</g>
<g>
	<g>
		<path d="M391.116,81.542c7.411,17.764,34.036,26.889,56.604,17.247C445.652,82.18,421.902,59.68,391.116,81.542z"/>
	</g>
</g>
<g>
	<g>
		<path d="M478.144,30.946c-28.992,12.359-28.367,50.359-20.338,64.65C492.402,87.59,493.027,53.055,478.144,30.946z"/>
	</g>
</g>
<g>
	<g>
		<path d="M206.345,306.042c-11.685,27.013,2.253,51.819,28.6,51.819C240.286,331.492,222.786,307.93,206.345,306.042z"/>
	</g>
</g>
<g>
	<g>
		<path d="M174.889,401.669c33.584,13.512,59.022-6.113,59.022-33.278C196.473,361.18,176.473,389.055,174.889,401.669z"/>
	</g>
</g>
<g>
	<g>
		<path d="M165.6,285.517c-19.96,22.371-11.055,51.621,12.17,57.901C187.723,325.471,184.89,295.388,165.6,285.517z"/>
	</g>
</g>
<g>
	<g>
		<path d="M107.5,367.725c32.473,22.163,59.223,8.663,66.19-14.545C141.139,336.388,114.139,353.472,107.5,367.725z"/>
	</g>
</g>
<g>
	<g>
		<path d="M132.524,253.901c-22.218,13.737-29.176,43.654-5.222,58.995C136.723,305.117,152.035,274.054,132.524,253.901z"/>
	</g>
</g>
<g>
	<g>
		<path d="M53.039,315.674c18.267,29.131,53.851,27.744,67.509,5.365C103.473,303.138,72.473,297.221,53.039,315.674z"/>
	</g>
</g>
<g>
	<g>
		<path d="M110.142,214.117c-25.919,6.688-39.335,32.854-22.192,54.834C109.64,259.305,119.806,229.638,110.142,214.117z"/>
	</g>
</g>
<g>
	<g>
		<path d="M16.061,249.931c12.662,38.04,46.329,39.874,63.059,24.848C73.39,260.138,43.223,235.138,16.061,249.931z"/>
	</g>
</g>
<g>
	<g>
		<path d="M100.446,169.544c-22.306-1.24-48.556,16.427-37.372,45.939C94.056,209.555,103.806,181.221,100.446,169.544z"/>
	</g>
</g>
<g>
	<g>
		<path d="M0,176.203c-0.018,42.018,35.973,51.185,52.923,42.261C49.223,192.483,24.806,171.555,0,176.203z"/>
	</g>
</g>
<g>
	<g>
		<path d="M55.044,157.044c15.117,2.698,46.242-7.365,49.022-33.126C77.348,115.18,53.098,129.157,55.044,157.044z"/>
	</g>
</g>
<g>
	<g>
		<path d="M6.015,101.123c-8.375,24.515,4.041,59.348,38.45,55.813C47.286,134.68,34.098,104.055,6.015,101.123z"/>
	</g>
</g>
<g>
	<g>
		<path d="M64.28,98.789c22.568,9.642,49.193,0.517,56.604-17.247C90.098,59.68,66.348,82.18,64.28,98.789z"/>
	</g>
</g>
<g>
	<g>
		<path d="M33.856,30.946c-14.883,22.11-14.258,56.645,20.338,64.65C62.224,81.305,62.849,43.305,33.856,30.946z"/>
	</g>
</g>
<g>
</g>
<g>
</g>
<g>
</g>
<g>
</g>
<g>
</g>
<g>
</g>
<g>
</g>
<g>
</g>
<g>
</g>
<g>
</g>
<g>
</g>
<g>
</g>
<g>
</g>
<g>
</g>
<g>
</g>
</svg>
