<?xml version="1.0" encoding="utf-8"?>
<!-- Generator: Adobe Illustrator 19.0.0, SVG Export Plug-In . SVG Version: 6.00 Build 0)  -->
<svg version="1.1" id="Capa_1" xmlns="http://www.w3.org/2000/svg" xmlns:xlink="http://www.w3.org/1999/xlink" x="0px" y="0px"
	 viewBox="224 -224 512 512" style="enable-background:new 224 -224 512 512;" xml:space="preserve">
<style type="text/css">
	.st0{fill:none;stroke:#000000;stroke-width:14;stroke-miterlimit:10;}
</style>
<g>
	<g>
		<path class="st0" d="M480-189.9c-68.9,0-125,56.1-125,125s56.1,125,125,125S605,4,605-64.9S548.9-189.9,480-189.9z"/>
	</g>
</g>
<g>
	<g>
		<polygon class="st0" points="500,-24.9 500,-134.9 445,-134.9 445,-104.9 470,-104.9 470,-24.9 445,-24.9 445,5.1 525,5.1 
			525,-24.9 		"/>
	</g>
</g>
<g>
	<g>
		<path class="st0" d="M495.9,154.2c2.6-3.4,4.1-7.6,4.1-12.1c0-11-9-20-20-20s-20,9-20,20c0,4.6,1.5,8.7,4.1,12.1"/>
		<path class="st0" d="M380,257.1c42.8,0,80.2-23.5,100-58.3c19.8,34.8,57.2,58.3,100,58.3"/>
	</g>
</g>
<g>
	<g>
		<path class="st0" d="M529.7,82c-16.4,1.9-33.9,25.5-28.6,51.8C527.4,133.9,541.3,109.1,529.7,82z"/>
	</g>
</g>
<g>
	<g>
		<path class="st0" d="M502.1,144.4c0,27.2,25.4,46.8,59,33.3C559.5,165.1,539.5,137.2,502.1,144.4z"/>
	</g>
</g>
<g>
	<g>
		<path class="st0" d="M570.4,61.5c-19.3,9.9-22.1,40-12.2,57.9C581.5,113.1,590.4,83.9,570.4,61.5z"/>
	</g>
</g>
<g>
	<g>
		<path class="st0" d="M562.3,129.2c7,23.2,33.7,36.7,66.2,14.5C621.9,129.5,594.9,112.4,562.3,129.2z"/>
	</g>
</g>
<g>
	<g>
		<path class="st0" d="M603.5,29.9c-19.5,20.2-4.2,51.2,5.2,59C632.7,73.6,625.7,43.6,603.5,29.9z"/>
	</g>
</g>
<g>
	<g>
		<path class="st0" d="M615.5,97c13.7,22.4,49.2,23.8,67.5-5.4C663.5,73.2,632.5,79.1,615.5,97z"/>
	</g>
</g>
<g>
	<g>
		<path class="st0" d="M625.9-9.9C616.2,5.6,626.4,35.3,648,45C665.2,23,651.8-3.2,625.9-9.9z"/>
	</g>
</g>
<g>
	<g>
		<path class="st0" d="M656.9,50.8c16.7,15,50.4,13.2,63.1-24.8C692.8,11.1,662.6,36.1,656.9,50.8z"/>
	</g>
</g>
<g>
	<g>
		<path class="st0" d="M635.6-54.5c-3.4,11.7,6.4,40,37.4,45.9C684.1-38,657.9-55.7,635.6-54.5z"/>
	</g>
</g>
<g>
	<g>
		<path class="st0" d="M683.1-5.5C700,3.4,736-5.8,736-47.8C711.2-52.4,686.8-31.5,683.1-5.5z"/>
	</g>
</g>
<g>
	<g>
		<path class="st0" d="M631.9-100.1c2.8,25.8,33.9,35.8,49,33.1C682.9-94.8,658.7-108.8,631.9-100.1z"/>
	</g>
</g>
<g>
	<g>
		<path class="st0" d="M730-122.9c-28.1,2.9-41.3,33.6-38.5,55.8C725.9-63.5,738.4-98.4,730-122.9z"/>
	</g>
</g>
<g>
	<g>
		<path class="st0" d="M615.1-142.5c7.4,17.8,34,26.9,56.6,17.2C669.7-141.8,645.9-164.3,615.1-142.5z"/>
	</g>
</g>
<g>
	<g>
		<path class="st0" d="M702.1-193.1c-29,12.4-28.4,50.4-20.3,64.7C716.4-136.4,717-170.9,702.1-193.1z"/>
	</g>
</g>
<g>
	<g>
		<path class="st0" d="M430.3,82c-11.7,27,2.3,51.8,28.6,51.8C464.3,107.5,446.8,83.9,430.3,82z"/>
	</g>
</g>
<g>
	<g>
		<path class="st0" d="M398.9,177.7c33.6,13.5,59-6.1,59-33.3C420.5,137.2,400.5,165.1,398.9,177.7z"/>
	</g>
</g>
<g>
	<g>
		<path class="st0" d="M389.6,61.5c-20,22.4-11.1,51.6,12.2,57.9C411.7,101.5,408.9,71.4,389.6,61.5z"/>
	</g>
</g>
<g>
	<g>
		<path class="st0" d="M331.5,143.7c32.5,22.2,59.2,8.7,66.2-14.5C365.1,112.4,338.1,129.5,331.5,143.7z"/>
	</g>
</g>
<g>
	<g>
		<path class="st0" d="M356.5,29.9c-22.2,13.7-29.2,43.7-5.2,59C360.7,81.1,376,50.1,356.5,29.9z"/>
	</g>
</g>
<g>
	<g>
		<path class="st0" d="M277,91.7c18.3,29.1,53.9,27.7,67.5,5.4C327.5,79.1,296.5,73.2,277,91.7z"/>
	</g>
</g>
<g>
	<g>
		<path class="st0" d="M334.1-9.9C308.2-3.2,294.8,23,312,45C333.6,35.3,343.8,5.6,334.1-9.9z"/>
	</g>
</g>
<g>
	<g>
		<path class="st0" d="M240.1,25.9c12.7,38,46.3,39.9,63.1,24.8C297.4,36.1,267.2,11.1,240.1,25.9z"/>
	</g>
</g>
<g>
	<g>
		<path class="st0" d="M324.4-54.5c-22.3-1.2-48.6,16.4-37.4,45.9C318.1-14.4,327.8-42.8,324.4-54.5z"/>
	</g>
</g>
<g>
	<g>
		<path class="st0" d="M224-47.8c0,42,36,51.2,52.9,42.3C273.2-31.5,248.8-52.4,224-47.8z"/>
	</g>
</g>
<g>
	<g>
		<path class="st0" d="M279-67c15.1,2.7,46.2-7.4,49-33.1C301.3-108.8,277.1-94.8,279-67z"/>
	</g>
</g>
<g>
	<g>
		<path class="st0" d="M230-122.9c-8.4,24.5,4,59.3,38.4,55.8C271.3-89.3,258.1-119.9,230-122.9z"/>
	</g>
</g>
<g>
	<g>
		<path class="st0" d="M288.3-125.2c22.6,9.6,49.2,0.5,56.6-17.2C314.1-164.3,290.3-141.8,288.3-125.2z"/>
	</g>
</g>
<g>
	<g>
		<path class="st0" d="M257.9-193.1c-14.9,22.1-14.3,56.6,20.3,64.7C286.2-142.7,286.8-180.7,257.9-193.1z"/>
	</g>
</g>
</svg>
