<?xml version="1.0" encoding="utf-8"?>
<!-- Generator: Adobe Illustrator 19.0.0, SVG Export Plug-In . SVG Version: 6.00 Build 0)  -->
<svg version="1.1"
	 id="Layer_1" xmlns:rdf="http://www.w3.org/1999/02/22-rdf-syntax-ns#" xmlns:dc="http://purl.org/dc/elements/1.1/" xmlns:cc="http://creativecommons.org/ns#" xmlns:svg="http://www.w3.org/2000/svg" xmlns:sodipodi="http://sodipodi.sourceforge.net/DTD/sodipodi-0.dtd" xmlns:inkscape="http://www.inkscape.org/namespaces/inkscape"
	 xmlns="http://www.w3.org/2000/svg" xmlns:xlink="http://www.w3.org/1999/xlink" x="0px" y="0px" viewBox="-269 258 100 100"
	 style="enable-background:new -269 258 100 100;" xml:space="preserve">
<g transform="translate(0,-952.36215)">
	<path d="M-219,1216.4c-14.9,0-27,12.1-27,27c0,8.9,4.3,16.7,10.9,21.7l-10.8,18.3c-0.6,0.9-0.4,2.2,0.5,2.8s2.2,0.4,2.8-0.5
		c0-0.1,0.1-0.1,0.1-0.2l10.7-18.2c3.8,2.1,8.1,3.2,12.7,3.2s8.9-1.2,12.7-3.2l13.7,23.2h-7.5c-0.8,0-1.4,0.4-1.8,1.1l-3.4,6.8
		l-12.1-19.9c-0.6-0.9-1.8-1.3-2.7-0.7c-0.3,0.2-0.5,0.4-0.7,0.7l-12.1,19.9l-3.4-6.8c-0.3-0.7-1-1.1-1.8-1.1h-11c-1.1,0-2,0.9-2,2
		s0.9,2,2,2c0,0,0,0,0.1,0h9.8l4.4,8.9c0.5,1,1.7,1.4,2.7,0.9c0.3-0.2,0.6-0.4,0.8-0.8l12.3-20.2l12.3,20.2c0.6,0.9,1.8,1.2,2.7,0.7
		c0.3-0.2,0.6-0.5,0.8-0.8l4.4-8.9h9.8c1.1,0,2-0.9,2-2c0-0.4-0.1-0.7-0.3-1l-15.6-26.3c6.6-4.9,10.9-12.8,10.9-21.7
		C-192,1228.5-204.1,1216.4-219,1216.4z M-219,1220.4c12.7,0,23,10.3,23,23c0,12.7-10.3,23-23,23s-23-10.3-23-23
		C-242,1230.6-231.7,1220.4-219,1220.4z M-219.2,1227.4c-0.7,0.1-1.3,0.5-1.6,1.1l-3.6,7.2l-8.1,1.8c-1.1,0.2-1.8,1.3-1.5,2.4
		c0.1,0.3,0.2,0.6,0.4,0.9l5.4,6.3l-0.9,8.1c-0.1,1.1,0.7,2.1,1.8,2.2c0.4,0,0.8,0,1.1-0.2l7.1-3.7l7.1,3.7c1,0.5,2.2,0.1,2.7-0.9
		c0.2-0.4,0.3-0.7,0.2-1.1l-0.9-8.1l5.4-6.3c0.7-0.8,0.6-2.1-0.2-2.8c-0.2-0.2-0.5-0.4-0.9-0.4l-8.1-1.8l-3.6-7.2
		C-217.6,1227.7-218.4,1227.3-219.2,1227.4z M-219,1233.8l2.2,4.4c0.3,0.5,0.8,0.9,1.3,1l5.7,1.3l-3.8,4.5c-0.4,0.4-0.5,1-0.5,1.5
		l0.6,5.3l-4.7-2.4c-0.6-0.3-1.2-0.3-1.8,0l-4.7,2.4l0.6-5.3c0.1-0.6-0.1-1.1-0.5-1.5l-3.8-4.5l5.7-1.3c0.6-0.1,1.1-0.5,1.3-1
		C-221.2,1238.3-219,1233.8-219,1233.8z"/>
</g>
</svg>
