<?xml version="1.0" encoding="utf-8"?>
<!-- Generator: Adobe Illustrator 19.0.0, SVG Export Plug-In . SVG Version: 6.00 Build 0)  -->
<svg version="1.1"
	 id="Layer_1" xmlns:dc="http://purl.org/dc/elements/1.1/" xmlns:cc="http://creativecommons.org/ns#" xmlns:rdf="http://www.w3.org/1999/02/22-rdf-syntax-ns#" xmlns:svg="http://www.w3.org/2000/svg" xmlns:sodipodi="http://sodipodi.sourceforge.net/DTD/sodipodi-0.dtd" xmlns:inkscape="http://www.inkscape.org/namespaces/inkscape"
	 xmlns="http://www.w3.org/2000/svg" xmlns:xlink="http://www.w3.org/1999/xlink" x="0px" y="0px" viewBox="-303 305 32 32"
	 style="enable-background:new -303 305 32 32;" xml:space="preserve">
<g>
	<path d="M-290,316.5v2c0,0.3,0.2,0.5,0.5,0.5h5c0.3,0,0.5-0.2,0.5-0.5v-2c0-0.3-0.2-0.5-0.5-0.5h-5C-289.8,316-290,316.2-290,316.5
		z M-289,317h4v1h-4V317z"/>
	<path d="M-291.5,316h-5c-0.3,0-0.5,0.2-0.5,0.5v2c0,0.3,0.2,0.5,0.5,0.5h5c0.3,0,0.5-0.2,0.5-0.5v-2
		C-291,316.2-291.2,316-291.5,316z M-292,318h-4v-1h4V318z"/>
	<path d="M-271.3,311.5l-15.5-6.4c-0.1,0-0.1,0-0.2,0c-0.1,0-0.1,0-0.2,0l-15.4,6.4c-0.2,0.1-0.3,0.3-0.3,0.5v4.5
		c0,0.3,0.2,0.5,0.5,0.5h2.5v19.5c0,0.3,0.2,0.5,0.5,0.5h24.8c0.3,0,0.5-0.2,0.5-0.5V317h2.5c0.3,0,0.5-0.2,0.5-0.5V312
		C-271,311.7-271.1,311.5-271.3,311.5z M-294,335.9v-4h4v4H-294z M-290,331h-4v-4h4V331z M-285,335.9h-4v-4h4V335.9z M-284,332h4v4
		h-4V332z M-278,335.9h-1v-4.5c0-0.3-0.2-0.5-0.5-0.5h-5h-0.5h-4v-4.5c0-0.3-0.2-0.5-0.5-0.5h-5c-0.3,0-0.5,0.2-0.5,0.5v5v4.5h-1
		V321h17.9V335.9z M-272.1,315.9h-2.5c-0.3,0-0.5,0.2-0.5,0.5v19.5h-1.9v-15.4c0-0.3-0.2-0.5-0.5-0.5h-18.9c-0.3,0-0.5,0.2-0.5,0.5
		v15.4h-1.9v-19.5c0-0.3-0.2-0.5-0.5-0.5h-2.5v-3.5l14.9-6.2l14.9,6.2V315.9z"/>
	<path d="M-282.5,319h5c0.3,0,0.5-0.2,0.5-0.5v-2c0-0.3-0.2-0.5-0.5-0.5h-5c-0.3,0-0.5,0.2-0.5,0.5v2
		C-283,318.7-282.8,319-282.5,319z M-282,317h4v1h-4V317z"/>
</g>
</svg>
