<?xml version="1.0" encoding="utf-8"?>
<!-- Generator: Adobe Illustrator 19.0.0, SVG Export Plug-In . SVG Version: 6.00 Build 0)  -->
<svg version="1.1" id="Layer_1" xmlns="http://www.w3.org/2000/svg" xmlns:xlink="http://www.w3.org/1999/xlink" x="0px" y="0px"
	 viewBox="-269 258 100 100" style="enable-background:new -269 258 100 100;" xml:space="preserve">
<g>
	<path d="M-192,316c-4.6,0-9.3,1-11.9,2.8v-16.2c0-4.2-7.7-6.4-15-6.4s-15,2.3-15,6.4v16.1c-2.7-1.7-7.3-2.7-11.8-2.7
		c-6.8,0-14,2.1-14,6V347c0,3.9,7.2,6,14,6c5.3,0,10.9-1.3,13.1-3.7c2.5,2.4,8.2,3.7,13.8,3.7c5.6,0,11.4-1.3,13.8-3.8
		c2.1,2.5,7.7,3.8,13.1,3.8c6.8,0,14-2.1,14-6V322C-178,318.1-185.2,316-192,316z M-245.8,318c6.5,0,10.9,1.8,11.8,3.4v1.2
		c-0.9,1.6-5.3,3.4-11.8,3.4c-7.4,0-12-2.3-12-4C-257.8,320.3-253.3,318-245.8,318z M-257.8,325.1c2.6,1.8,7.4,2.8,12,2.8
		c4.5,0,9.1-0.9,11.8-2.7v3.6c-0.9,1.6-5.3,3.4-11.8,3.4c-7.4,0-12-2.3-12-4C-257.8,328.2-257.8,325.1-257.8,325.1z M-257.8,331.4
		c2.6,1.8,7.4,2.8,12,2.8c4.5,0,9.1-0.9,11.8-2.7v3.6c-0.9,1.6-5.3,3.4-11.8,3.4c-7.4,0-12-2.3-12-4
		C-257.8,334.5-257.8,331.4-257.8,331.4z M-257.8,337.7c2.6,1.8,7.4,2.8,12,2.8c4.5,0,9.1-0.9,11.8-2.7v3.6
		c-0.9,1.6-5.3,3.4-11.8,3.4c-7.4,0-12-2.3-12-4C-257.8,340.8-257.8,337.7-257.8,337.7z M-245.8,351c-7.4,0-12-2.3-12-4v-3.1
		c2.6,1.8,7.4,2.8,12,2.8c4.5,0,9.1-0.9,11.8-2.7v3.6C-235,349.2-239.3,351-245.8,351z M-206.1,346.6c0,1.8-4.9,4.3-12.9,4.3
		c-7.6,0-12.4-2.2-12.8-4v-3.1c2.8,1.9,7.9,3,12.8,3c4.9,0,10.1-1,12.9-3V346.6z M-206.1,340.3c0,1.8-4.9,4.3-12.9,4.3
		c-7.6,0-12.4-2.2-12.8-4v-3.1c2.8,1.9,7.9,3,12.8,3c4.9,0,10.1-1,12.9-3V340.3z M-206.1,334c0,1.8-4.9,4.3-12.9,4.3
		c-7.6,0-12.4-2.2-12.8-4v-3.1c2.8,1.9,7.9,3,12.8,3c4.9,0,10.1-1,12.9-3V334z M-206.1,327.7c0,1.8-4.9,4.3-12.9,4.3
		c-7.6,0-12.4-2.2-12.8-4v-3.1c2.8,1.9,7.9,3,12.8,3c4.9,0,10.1-1,12.9-3V327.7z M-206.1,321.4c0,1.8-4.9,4.3-12.9,4.3
		s-12.9-2.5-12.9-4.3v-2.9c2.8,2,7.9,3,12.9,3s10.1-1,12.9-3V321.4z M-206.1,315.1c0,1.8-4.9,4.3-12.9,4.3s-12.9-2.5-12.9-4.3v-2.9
		c2.8,2,7.9,3,12.9,3s10.1-1,12.9-3V315.1z M-206.1,308.8c0,1.8-4.9,4.3-12.9,4.3s-12.9-2.5-12.9-4.3V306c2.8,2,7.9,3,12.9,3
		s10.1-1,12.9-3V308.8z M-219,306.8c-8,0-12.9-2.5-12.9-4.3c0-1.8,4.9-4.3,12.9-4.3s12.9,2.5,12.9,4.3
		C-206.1,304.3-211,306.8-219,306.8z M-180,347c0,1.7-4.6,4-12,4c-7,0-11.5-2.1-11.9-3.7V344c2.6,1.8,7.4,2.8,11.9,2.8
		c4.6,0,9.4-1,12-2.8V347z M-180,340.8c0,1.7-4.6,4-12,4c-7,0-11.5-2.1-11.9-3.7v-3.3c2.6,1.8,7.4,2.8,11.9,2.8c4.6,0,9.4-1,12-2.8
		V340.8z M-180,334.5c0,1.7-4.6,4-12,4c-7,0-11.5-2.1-11.9-3.7v-3.3c2.6,1.8,7.4,2.8,11.9,2.8c4.6,0,9.4-1,12-2.8V334.5z
		 M-180,328.2c0,1.7-4.6,4-12,4c-7,0-11.5-2.1-11.9-3.7v-3.3c2.6,1.8,7.4,2.8,11.9,2.8c4.6,0,9.4-1,12-2.8V328.2z M-192,325.9
		c-7,0-11.5-2.1-11.9-3.7v-0.6c0.5-1.6,4.9-3.7,11.9-3.7c7.4,0,12,2.3,12,4C-180,323.6-184.6,325.9-192,325.9z"/>
	<g>
		<path d="M-217.9,266c-0.1-0.1-0.3-0.3-0.5-0.3c0,0,0,0,0,0c-0.2-0.1-0.4-0.1-0.5-0.1s-0.4,0-0.5,0.1c0,0,0,0,0,0
			c-0.2,0.1-0.4,0.2-0.5,0.3l-6.7,6.7c-0.6,0.6-0.6,1.5,0,2.1s1.5,0.6,2.1,0l4.2-4.2v19.6c0,0.8,0.7,1.5,1.5,1.5
			c0.8,0,1.5-0.7,1.5-1.5v-19.6l4.2,4.2c0.3,0.3,0.7,0.4,1.1,0.4s0.8-0.1,1.1-0.4c0.6-0.6,0.6-1.5,0-2.1L-217.9,266z"/>
		<path d="M-244.9,286.5c-0.1-0.1-0.3-0.3-0.5-0.3c0,0,0,0,0,0c-0.2-0.1-0.4-0.1-0.5-0.1s-0.4,0-0.5,0.1c0,0,0,0,0,0
			c-0.2,0.1-0.4,0.2-0.5,0.3l-6.7,6.7c-0.6,0.6-0.6,1.5,0,2.1s1.5,0.6,2.1,0l4.2-4.2v19.6c0,0.8,0.7,1.5,1.5,1.5s1.5-0.7,1.5-1.5
			v-19.6l4.2,4.2c0.3,0.3,0.7,0.4,1.1,0.4s0.8-0.1,1.1-0.4c0.6-0.6,0.6-1.5,0-2.1L-244.9,286.5z"/>
		<path d="M-184.3,293.2l-6.7-6.7c-0.1-0.1-0.3-0.3-0.5-0.3c0,0,0,0,0,0c-0.2-0.1-0.4-0.1-0.5-0.1s-0.4,0-0.5,0.1c0,0,0,0,0,0
			c-0.2,0.1-0.4,0.2-0.5,0.3l-6.7,6.7c-0.6,0.6-0.6,1.5,0,2.1s1.5,0.6,2.1,0l4.2-4.2v19.6c0,0.8,0.7,1.5,1.5,1.5s1.5-0.7,1.5-1.5
			v-19.6l4.2,4.2c0.3,0.3,0.7,0.4,1.1,0.4c0.4,0,0.8-0.1,1.1-0.4C-183.7,294.7-183.7,293.8-184.3,293.2z"/>
	</g>
</g>
</svg>
