<?xml version="1.0" encoding="utf-8"?>
<!-- Generator: Adobe Illustrator 19.0.0, SVG Export Plug-In . SVG Version: 6.00 Build 0)  -->
<svg version="1.1" id="Layer_1" xmlns="http://www.w3.org/2000/svg" xmlns:xlink="http://www.w3.org/1999/xlink" x="0px" y="0px"
	 viewBox="-269 258 100 100" style="enable-background:new -269 258 100 100;" xml:space="preserve">
<path d="M-187.5,284.4h-8.5c-1.2,0-2.1-1-2.1-2.1c0-1.2,1-2.1,2.1-2.1h3.3c-15-14.2-38.7-14-53.4,0.7c-0.8,0.8-2.2,0.8-3,0
	c-0.8-0.8-0.8-2.2,0-3c16.4-16.3,42.8-16.6,59.5-0.7v-3.4c0-1.2,1-2.1,2.1-2.1s2.1,1,2.1,2.1v8.5
	C-185.4,283.5-186.4,284.4-187.5,284.4z M-250.5,344.3c1.2,0,2.1-1,2.1-2.1v-3.4c8,7.6,18.4,11.7,29.4,11.7c11.4,0,22-4.4,30.1-12.5
	c0.8-0.8,0.8-2.2,0-3c-0.8-0.8-2.2-0.8-3,0c-7.3,7.3-16.9,11.3-27.1,11.3c-9.9,0-19.2-3.7-26.3-10.5h3.3c1.2,0,2.1-1,2.1-2.1
	c0-1.1-1-2.1-2.1-2.1h-8.5c-1.2,0-2.1,1-2.1,2.1v8.5C-252.6,343.3-251.6,344.3-250.5,344.3z M-245,311.7l1.8-0.8c-0.3-2-0.3-4,0-6
	l-1.8-0.7c-1.1-0.5-2-1.3-2.4-2.4c-0.5-1.1-0.5-2.3,0-3.4l1.5-3.7c0.7-1.7,2.3-2.8,4.1-2.8c0.6,0,1.2,0.1,1.7,0.3l1.8,0.8
	c1.2-1.6,2.7-3,4.3-4.2l-0.7-1.8c-0.5-1.1-0.5-2.3,0-3.4s1.3-2,2.4-2.4l3.7-1.5c0.5-0.2,1.1-0.3,1.7-0.3c1.8,0,3.4,1.1,4.1,2.8
	l0.8,1.8c2-0.2,4-0.2,6,0l0.8-1.8c0.7-1.7,2.3-2.8,4.1-2.8c0.6,0,1.2,0.1,1.7,0.3l3.7,1.5c2.3,0.9,3.4,3.6,2.4,5.9l-0.7,1.7
	c1.6,1.2,3,2.7,4.2,4.3l1.8-0.8c0.5-0.2,1.1-0.3,1.7-0.3c1.8,0,3.4,1.1,4.1,2.8l1.5,3.7c0.5,1.1,0.5,2.3,0,3.4s-1.3,2-2.4,2.4
	l-1.7,0.7c0.3,2,0.3,4,0,6l1.8,0.8c1.1,0.5,2,1.3,2.4,2.4c0.5,1.1,0.5,2.3,0,3.4l-1.5,3.7c-0.7,1.7-2.3,2.7-4.2,2.7l0,0
	c-0.6,0-1.2-0.1-1.7-0.3l-1.8-0.7c-1.2,1.6-2.7,3-4.3,4.2l0.8,1.8c0.5,1.1,0.5,2.3,0,3.4s-1.3,2-2.4,2.4l-3.7,1.5
	c-0.5,0.2-1.1,0.3-1.7,0.3c-1.8,0-3.4-1.1-4.1-2.8l-0.8-1.6c-2,0.2-4,0.2-6,0l-0.8,1.8c-0.7,1.7-2.3,2.8-4.1,2.8
	c-0.6,0-1.2-0.1-1.7-0.3l-3.7-1.5c-1.1-0.5-2-1.3-2.4-2.4c-0.5-1.1-0.5-2.3,0-3.4l0.8-1.8c-1.6-1.2-3-2.7-4.2-4.3l-1.9,0.6
	c-0.5,0.2-1.1,0.3-1.7,0.3c-1.8,0-3.4-1.1-4.1-2.8l-1.5-3.7c-0.5-1.1-0.5-2.3,0-3.4C-247,313.1-246.1,312.2-245,311.7z M-243.5,316
	l1.5,3.7c0.1,0.2,0.2,0.2,0.3,0.1l3.4-1.4c0.9-0.4,2-0.1,2.6,0.8c1.5,2.2,3.3,4.1,5.5,5.5c0.8,0.6,1.2,1.6,0.8,2.6l-1.4,3.4
	c0,0.1,0,0.1,0,0.2s0.1,0.1,0.1,0.1l3.7,1.5c0.1,0,0.2,0,0.3-0.1l1.4-3.4c0.4-0.9,1.4-1.5,2.4-1.3c2.6,0.5,5.2,0.5,7.8,0
	c0.1,0,0.3,0,0.4,0c0.8,0,1.6,0.5,2,1.3l1.4,3.4c0.1,0.2,0.2,0.2,0.3,0.1l3.7-1.5c0.1,0,0.1-0.1,0.1-0.1c0-0.1,0-0.1,0-0.2l-1.4-3.4
	c-0.4-0.9-0.1-2,0.8-2.6c2.2-1.5,4.1-3.3,5.5-5.5c0.6-0.8,1.6-1.2,2.6-0.8l3.4,1.4c0.1,0,0.2,0,0.3-0.1l1.5-3.7c0-0.1,0-0.1,0-0.2
	c0-0.1-0.1-0.1-0.1-0.1l-3.4-1.4c-0.9-0.4-1.5-1.4-1.3-2.4c0.5-2.6,0.5-5.2,0-7.8c-0.2-1,0.3-2,1.3-2.4l3.4-1.4
	c0.1,0,0.1-0.1,0.1-0.1c0-0.1,0-0.1,0-0.2l-1.5-3.7c-0.1-0.2-0.2-0.2-0.3-0.1l-3.4,1.4c-0.9,0.4-2,0.1-2.6-0.8
	c-1.5-2.2-3.3-4.1-5.5-5.5c-0.8-0.6-1.2-1.6-0.8-2.6l1.4-3.4c0.1-0.1,0-0.3-0.1-0.3l-3.7-1.5c-0.1,0-0.2,0-0.3,0.1l-1.4,3.4
	c-0.4,0.9-1.4,1.5-2.4,1.3c-2.6-0.5-5.2-0.5-7.8,0c-1,0.2-2-0.3-2.4-1.3l-1.4-3.4c-0.1-0.2-0.2-0.2-0.3-0.1l-3.7,1.5
	c-0.1,0-0.1,0.1-0.1,0.1c0,0.1,0,0.1,0,0.2l1.4,3.4c0.4,0.9,0.1,2-0.8,2.6c-2.2,1.5-4.1,3.3-5.5,5.5c-0.6,0.8-1.6,1.2-2.6,0.8
	l-3.4-1.4c-0.1,0-0.2,0-0.3,0.1l-1.5,3.7c0,0.1,0,0.1,0,0.2c0,0.1,0.1,0.1,0.1,0.1l3.4,1.4c0.9,0.4,1.5,1.4,1.3,2.4
	c-0.5,2.6-0.5,5.2,0,7.8c0.2,1-0.3,2-1.3,2.4l-3.4,1.4c-0.1,0-0.1,0.1-0.1,0.1C-243.5,315.9-243.5,315.9-243.5,316z M-230.7,312.8
	c-1.3-3.1-1.3-6.6,0-9.7c2-4.8,6.6-7.8,11.7-7.8c1.7,0,3.3,0.3,4.9,1c3.1,1.3,5.6,3.7,6.9,6.9c1.3,3.1,1.3,6.6,0,9.7
	c-2,4.8-6.6,7.8-11.7,7.8c-1.7,0-3.3-0.3-4.9-1C-227,318.4-229.4,316-230.7,312.8z M-226.8,311.2c0.9,2.1,2.5,3.7,4.6,4.6
	c1,0.4,2.1,0.6,3.2,0.6c3.4,0,6.5-2.1,7.8-5.2c0.9-2.1,0.9-4.4,0-6.5c-0.9-2.1-2.5-3.7-4.6-4.6c-1-0.4-2.1-0.6-3.2-0.6
	c-3.4,0-6.5,2.1-7.8,5.2C-227.7,306.8-227.7,309.1-226.8,311.2z"/>
</svg>
