<?xml version="1.0" encoding="utf-8"?>
<!-- Generator: Adobe Illustrator 19.0.0, SVG Export Plug-In . SVG Version: 6.00 Build 0)  -->
<svg version="1.1" id="Layer_1" xmlns="http://www.w3.org/2000/svg" xmlns:xlink="http://www.w3.org/1999/xlink" x="0px" y="0px"
	 viewBox="-269 258 100 100" style="enable-background:new -269 258 100 100;" xml:space="preserve">
<title>Targeting group Copy 6</title>
<desc>Created with Sketch.</desc>
<g>
	<path d="M-207.3,329.9c1.7,0,4.2-1.5,7.2-4.4c1.5-1.5,3.1-3.2,4.9-5.3c1.8-2.1,6.6-8.2,7.1-8.8c1.2-1.5,0.9-3.2-0.5-4.3
		c-1.5-1.2-3.5-1-5.1,0.7c-2.9,3.3-6.3,7.1-10.4,11.3c-1.3,1.4-3.5-0.5-2.2-2c0.5-0.6,0.8-1.4,0.8-2.2c0-1.9-1.5-3.5-3.4-3.5h-17.5
		c-2.5,0-5.4,1.4-7.3,3.4c-2.2,2.3-4,4.3-5.3,5.9l5.5,9.1H-207.3z M-195.9,305.9c2.6-3,6.4-3.3,9.2-1.1c2.8,2.1,3.4,5.8,1,8.6
		c-0.4,0.5-5.3,6.6-7.1,8.8c-1.8,2.1-3.5,4-5.1,5.5c-3.5,3.4-6.6,5.3-9.3,5.3c-11.2,0-19.5,0-25.1,0c-1.9,0-8.7-14.4-8.2-14.9
		c1.3-1.5,2.9-3.3,4.7-5.2c2.5-2.6,6.2-4.3,9.5-4.3h12.8c2.1,0,2.1,0,4.8,0c3,0,5.5,2.1,6.2,4.9
		C-200.1,310.7-197.9,308.2-195.9,305.9z"/>
	<path d="M-239.3,337.7l6.1-3.5l-9.5-16.5l-6.1,3.5L-239.3,337.7z M-251.1,319.2l7.8-4.5c1-0.6,2.2-0.2,2.7,0.7l10.5,18.2
		c0.6,1,0.2,2.2-0.7,2.7l-7.8,4.5c-1,0.6-2.2,0.2-2.7-0.7l-10.5-18.2C-252.4,321-252.1,319.7-251.1,319.2z"/>
	<path d="M-219.5,311.5c-0.8,0-1.5-0.7-1.5-1.5s0.7-1.5,1.5-1.5h10.5c3.6,0,6.5,2.9,6.5,6.5s-2.9,6.5-6.5,6.5h-10
		c-0.8,0-1.5-0.7-1.5-1.5s0.7-1.5,1.5-1.5h10c1.9,0,3.5-1.6,3.5-3.5s-1.6-3.5-3.5-3.5H-219.5z"/>
	<path d="M-209.2,282c3.8-2.2,8.7-2,14.6,0.6l1,0.4l-0.1,1.1c-0.7,6.3-2.9,10.7-6.7,12.9c-5.4,3.1-13,2.3-14.9-1.6
		C-217.2,291.5-214.4,285-209.2,282z M-207.7,284.6c-4,2.3-6,7.2-4.9,9.6c1,2.1,6.6,2.7,10.6,0.3c2.7-1.6,4.4-4.7,5.1-9.5
		C-201.5,283.1-205,283-207.7,284.6z"/>
	<path d="M-228.1,290.3c-3.4-0.6-6.9,0.8-10.4,4l-0.8,0.8l0.5,1c2.2,4.3,5,6.8,8.4,7.4c4.8,0.9,10.2-1.7,10.5-5.1
		C-219.7,295-223.5,291.1-228.1,290.3z M-228.6,293.2c3.2,0.6,5.8,3.2,5.7,4.9c0,0.4-0.7,1.2-2,1.7c-1.5,0.7-3.3,0.9-5,0.6
		c-2.1-0.4-4-1.9-5.7-4.8C-233.1,293.7-230.7,292.9-228.6,293.2z"/>
	<path d="M-215.5,309c0,0.8-0.7,1.5-1.5,1.5s-1.5-0.7-1.5-1.5c0-3.8,0-3.8,0-9.1c0.1-2.4,0.9-4.3,2.5-5.4c1.5-1,5-3.1,11.3-6.8
		c0.7-0.4,1.6-0.2,2.1,0.5c0.4,0.7,0.2,1.6-0.5,2.1c-6.2,3.6-9.7,5.7-11.1,6.7c-0.7,0.5-1.1,1.5-1.2,3V309z"/>
	<path d="M-218.5,307c0,0.8,0.7,1.5,1.5,1.5c0.8,0,1.5-0.7,1.5-1.5l0-3.1c-0.3-1.8-1-3.3-2.2-4.5c-1.2-1.2-2.3-1.8-3.4-1.9l-8.5-1.9
		c-0.8-0.2-1.6,0.3-1.8,1.1s0.3,1.6,1.1,1.8l8.8,2c0.2,0,0.4,0.1,0.6,0.2c0.3,0.2,0.7,0.5,1.1,0.9c0.7,0.7,1.2,1.6,1.4,2.7V307z"/>
</g>
</svg>
