<?xml version="1.0" encoding="iso-8859-1"?>
<!-- Generator: Adobe Illustrator 19.0.0, SVG Export Plug-In . SVG Version: 6.00 Build 0)  -->
<svg version="1.1" id="Layer_1" xmlns="http://www.w3.org/2000/svg" xmlns:xlink="http://www.w3.org/1999/xlink" x="0px" y="0px"
	 viewBox="0 0 512 512" style="enable-background:new 0 0 512 512;" xml:space="preserve">
<g>
	<g>
		<path d="M304.435,251.818c11.358-11.977,18.347-28.135,18.347-45.905c0-36.824-29.959-66.783-66.783-66.783
			s-66.783,29.959-66.783,66.783c0,17.77,6.99,33.928,18.347,45.905c-30.825,17.1-51.739,49.981-51.739,87.66
			c0,9.22,7.475,16.696,16.696,16.696h166.957c9.22,0,16.696-7.475,16.696-16.696C356.174,301.799,335.26,268.918,304.435,251.818z
			 M256,172.522c18.412,0,33.391,14.979,33.391,33.391c0,18.412-14.979,33.391-33.391,33.391c-18.412,0-33.391-14.979-33.391-33.391
			C222.609,187.501,237.588,172.522,256,172.522z M191.33,322.783c7.432-28.772,33.608-50.087,64.67-50.087
			s57.238,21.315,64.67,50.087H191.33z"/>
	</g>
</g>
<g>
	<g>
		<path d="M461.913,411.826c-7.723,0-15.042,1.76-21.581,4.895l-43.13-43.13c57.354-67.856,57.613-167.815,0.782-235.963
			l42.348-42.348c6.539,3.134,13.857,4.894,21.581,4.894c27.618,0,50.087-22.469,50.087-50.087C512,22.469,489.531,0,461.913,0
			s-50.087,22.469-50.087,50.087c0,7.723,1.76,15.042,4.895,21.581l-42.348,42.348c-68.149-56.832-168.109-56.573-235.963,0.782
			l-43.13-43.13c3.134-6.539,4.894-13.857,4.894-21.581C100.174,22.469,77.705,0,50.087,0C22.469,0,0,22.469,0,50.087
			c0,27.618,22.469,50.087,50.087,50.087c7.723,0,15.042-1.76,21.581-4.895l43.273,43.273
			c-27.029,32.779-41.735,73.553-41.735,116.589c0,43.447,14.995,84.582,42.52,117.521L71.668,416.72
			c-6.539-3.134-13.857-4.894-21.581-4.894C22.469,411.826,0,434.295,0,461.913S22.469,512,50.087,512
			c27.618,0,50.087-22.469,50.087-50.087c0-7.723-1.76-15.042-4.895-21.581l44.059-44.059
			c32.938,27.524,74.074,42.521,117.521,42.521c43.036,0,83.81-14.706,116.589-41.735l43.273,43.273
			c-3.134,6.539-4.894,13.857-4.894,21.581c0,27.618,22.469,50.087,50.087,50.087S512,489.531,512,461.913
			S489.531,411.826,461.913,411.826z M461.913,33.391c9.206,0,16.696,7.49,16.696,16.696s-7.49,16.696-16.696,16.696
			s-16.696-7.49-16.696-16.696S452.707,33.391,461.913,33.391z M50.087,66.783c-9.206,0-16.696-7.49-16.696-16.696
			s7.49-16.696,16.696-16.696s16.696,7.49,16.696,16.696S59.293,66.783,50.087,66.783z M50.087,478.609
			c-9.206,0-16.696-7.49-16.696-16.696s7.49-16.696,16.696-16.696s16.696,7.49,16.696,16.696S59.293,478.609,50.087,478.609z
			 M363.109,361.392c-28.38,28.38-66.115,44.011-106.251,44.011c-83.046,0-150.261-67.206-150.261-150.261
			c0-83.583,67.702-150.191,150.261-150.191c38.473,0,76.961,14.65,106.251,43.94C421.695,207.477,421.695,302.806,363.109,361.392z
			 M461.913,478.609c-9.206,0-16.696-7.49-16.696-16.696s7.49-16.696,16.696-16.696s16.696,7.49,16.696,16.696
			S471.119,478.609,461.913,478.609z"/>
	</g>
</g>
<g>
</g>
<g>
</g>
<g>
</g>
<g>
</g>
<g>
</g>
<g>
</g>
<g>
</g>
<g>
</g>
<g>
</g>
<g>
</g>
<g>
</g>
<g>
</g>
<g>
</g>
<g>
</g>
<g>
</g>
</svg>
