<svg id="Capa_1" enable-background="new 0 0 512 512" height="512" viewBox="0 0 512 512" width="512" xmlns="http://www.w3.org/2000/svg"><path d="m256 512c52.545 0 103.078-16.392 146.877-47.51 17.283 10.169 39.886 7.798 54.648-6.965 14.792-14.791 17.112-37.402 6.965-54.648 31.118-43.798 47.51-94.331 47.51-146.877 0-68.113-26.702-132.327-75.188-180.812-48.485-48.486-112.699-75.188-180.812-75.188-52.545 0-103.078 16.392-146.877 47.51-17.246-10.147-39.856-7.827-54.648 6.965-15.08 15.079-16.97 37.737-6.97 54.656-31.115 43.797-47.505 94.326-47.505 146.869 0 140.96 115.049 256 256 256zm180.313-75.688c-5.848 5.848-15.364 5.849-21.214 0-5.849-5.848-5.849-15.365 0-21.213s15.364-5.849 21.214 0c5.862 5.863 5.862 15.351 0 21.213zm-31.545-350.292-43.24 43.24c-28.626-23.874-65.426-38.26-105.528-38.26-74.29 0-139.396 50.198-159.012 120.908-20.509 4.185-35.988 22.364-35.988 44.092s15.479 39.908 35.99 44.093c15.384 55.507 59.19 99.473 114.917 114.917 4.185 20.51 22.364 35.99 44.093 35.99 21.728 0 39.907-15.479 44.093-35.989 70.709-19.615 120.907-84.721 120.907-159.011 0-40.101-14.386-76.902-38.26-105.527l43.24-43.24c34.859 39.779 56.02 91.845 56.02 148.767 0 45.472-14 89.304-40.596 127.548-15.989-5.926-34.692-2.489-47.518 10.338-12.826 12.826-16.264 31.529-10.338 47.518-38.245 26.596-82.077 40.596-127.548 40.596-124.617 0-226-101.383-226-226 0-45.472 14-89.304 40.596-127.548 16.307 6.044 34.903 2.278 47.518-10.338 12.85-12.849 16.318-31.525 10.362-47.535 38.239-26.586 82.063-40.579 127.524-40.579 56.922 0 108.989 21.162 148.768 56.02zm-108.979 298.992c-7.556-14.266-22.552-24.012-39.789-24.012-17.236 0-32.231 9.745-39.787 24.01-42.73-13.125-76.097-46.492-89.222-89.223 14.264-7.556 24.009-22.552 24.009-39.787 0-17.237-9.746-32.233-24.012-39.789 17.256-55.888 69.534-95.211 129.012-95.211 31.827 0 61.112 11.078 84.216 29.571l-42.886 42.886c-11.86-7.863-26.066-12.457-41.33-12.457-41.355 0-75 33.645-75 75s33.645 75 75 75 75-33.645 75-75c0-15.264-4.594-29.47-12.458-41.329l42.887-42.886c18.493 23.103 29.571 52.388 29.571 84.215 0 59.478-39.323 111.756-95.211 129.012zm-24.789 20.988c0 8.271-6.729 15-15 15s-15-6.729-15-15 6.729-15 15-15 15 6.729 15 15zm-165-165c8.271 0 15 6.729 15 15s-6.729 15-15 15-15-6.729-15-15 6.729-15 15-15zm195 15c0 24.813-20.187 45-45 45s-45-20.187-45-45 20.187-45 45-45c6.939 0 13.514 1.581 19.389 4.398l-29.996 29.996 21.213 21.213 29.996-29.996c2.817 5.875 4.398 12.45 4.398 19.389zm-225.312-180.312c5.849-5.848 15.364-5.849 21.214 0 5.863 5.863 5.863 15.35 0 21.213-5.851 5.849-15.365 5.848-21.214 0-5.863-5.863-5.863-15.35 0-21.213z"/></svg>