<?xml version="1.0" encoding="iso-8859-1"?>
<!-- Generator: Adobe Illustrator 18.0.0, SVG Export Plug-In . SVG Version: 6.00 Build 0)  -->
<!DOCTYPE svg PUBLIC "-//W3C//DTD SVG 1.1//EN" "http://www.w3.org/Graphics/SVG/1.1/DTD/svg11.dtd">
<svg version="1.1" id="Capa_1" xmlns="http://www.w3.org/2000/svg" xmlns:xlink="http://www.w3.org/1999/xlink" x="0px" y="0px"
	 viewBox="0 0 491.234 491.234" style="enable-background:new 0 0 491.234 491.234;" xml:space="preserve">
<g>
	<path d="M483.712,458.504c-14.111,0-20.998-2.945-28.291-6.064c-7.758-3.317-15.781-6.747-31.631-6.747
		c-15.852,0-23.875,3.431-31.634,6.748c-7.293,3.117-14.181,6.063-28.291,6.063c-14.113,0-21.002-2.945-28.296-6.064
		c-7.759-3.317-15.783-6.747-31.636-6.747c-15.854,0-23.878,3.431-31.637,6.747c-7.294,3.118-14.183,6.064-28.295,6.064
		c-14.113,0-21.002-2.945-28.296-6.064c-7.76-3.317-15.784-6.747-31.637-6.747c-15.855,0-23.879,3.431-31.639,6.748
		c-7.293,3.117-14.182,6.063-28.294,6.063c-14.117,0-21.007-2.945-28.302-6.064c-7.761-3.317-15.786-6.747-31.64-6.747
		c-15.855,0-23.88,3.43-31.641,6.747c-7.295,3.118-14.185,6.064-28.3,6.064c-2.347,0-4.25,1.902-4.25,4.25
		c0,2.348,1.903,4.25,4.25,4.25c15.855,0,23.88-3.43,31.641-6.747c7.295-3.118,14.185-6.063,28.3-6.063
		c14.114,0,21.004,2.945,28.299,6.063c7.761,3.317,15.786,6.748,31.643,6.748c15.853,0,23.876-3.43,31.635-6.747
		c7.294-3.118,14.184-6.063,28.297-6.063c14.113,0,21.002,2.945,28.296,6.063c7.76,3.317,15.784,6.747,31.637,6.747
		c15.853,0,23.877-3.43,31.636-6.747c7.294-3.118,14.183-6.063,28.296-6.063c14.112,0,21.002,2.945,28.295,6.063
		c7.76,3.316,15.784,6.747,31.638,6.747c15.851,0,23.874-3.43,31.633-6.747c7.292-3.118,14.181-6.063,28.292-6.063
		c14.109,0,20.997,2.945,28.289,6.063c7.758,3.317,15.781,6.748,31.633,6.748c2.347,0,4.25-1.902,4.25-4.25
		C487.962,460.406,486.059,458.504,483.712,458.504z"/>
	<path d="M491.234,329.043v-31c0-12.269-9.982-22.25-22.25-22.25H346.782l114.4-187.054l0.014,141.054c0,2.348,1.903,4.25,4.25,4.25
		s4.25-1.903,4.25-4.25l-0.015-156.146c0-2.347-1.902-4.248-4.248-4.25c-0.001,0-0.001,0-0.001,0h-61.075
		c-1.277,0-2.486,0.574-3.294,1.563l-166.76,204.426L208.369,28.037c-0.227-2.164-2.051-3.807-4.227-3.807h-78.917
		c-2.184,0-4.013,1.655-4.229,3.829L94.827,290.793H41.984c-12.269,0-22.25,9.981-22.25,22.25v31c0,10.814,7.758,19.849,18,21.838
		v38.006c-1.791,0.695-3.496,1.42-5.184,2.142c-7.295,3.118-14.185,6.064-28.3,6.064c-2.347,0-4.25,1.902-4.25,4.25
		c0,2.348,1.903,4.25,4.25,4.25c15.855,0,23.88-3.43,31.641-6.747c7.295-3.118,14.185-6.063,28.3-6.063
		c14.114,0,21.004,2.945,28.299,6.063c7.761,3.317,15.786,6.748,31.643,6.748c15.853,0,23.876-3.43,31.635-6.747
		c7.294-3.118,14.184-6.063,28.297-6.063c14.113,0,21.002,2.945,28.296,6.063c7.76,3.317,15.784,6.747,31.637,6.747
		c15.853,0,23.877-3.43,31.636-6.747c7.294-3.118,14.183-6.063,28.296-6.063c14.112,0,21.002,2.945,28.295,6.063
		c7.76,3.316,15.784,6.747,31.638,6.747c15.851,0,23.874-3.43,31.633-6.747c7.292-3.118,14.181-6.063,28.292-6.063
		c14.109,0,20.997,2.945,28.289,6.063c7.758,3.317,15.781,6.748,31.633,6.748c2.347,0,4.25-1.902,4.25-4.25
		c0-2.348-1.903-4.25-4.25-4.25c-5.414,0-9.759-0.436-13.477-1.146v-59.689C481.923,350.605,491.234,340.892,491.234,329.043z
		 M482.734,298.043v13.75h-115.75c-2.347,0-4.25,1.902-4.25,4.25c0,2.348,1.903,4.25,4.25,4.25h115.75v8.75
		c0,7.582-6.168,13.75-13.75,13.75h-148.75v-29.75c0-12.269-9.982-22.25-22.25-22.25h-62.066l-0.682-6.5h233.748
		C476.566,284.293,482.734,290.461,482.734,298.043z M128.342,40.07l29.828,26.229l-35.694,32.664L128.342,40.07z M207.164,98.061
		l-36.265-31.888l30.039-27.489L207.164,98.061z M401.33,84.08l7.371,17.506l-38.707,20.908L401.33,84.08z M321.961,241.02
		l52.461-26.713l-35.069,57.341L321.961,241.02z M331.932,275.793H253.67l60.708-30.912L331.932,275.793z M317.76,233.621
		l-15.086-26.568l63.566-34.181l13.991,28.938L317.76,233.621z M386.314,194.864l-12.581-26.021l42.457-22.831L386.314,194.864z
		 M370.03,161.184l-11.136-23.033l53.121-28.693l10.007,23.77L370.03,161.184z M428.295,126.221l-8.767-20.822l32.109-17.344
		L428.295,126.221z M416.215,97.527l-8.265-19.631h44.607L416.215,97.527z M352.344,144.13l10.192,21.082l-48.792,26.237
		L352.344,144.13z M296.229,212.92l13.948,24.563l-58.13,29.599L296.229,212.92z M218.348,204.731l8.463,80.725l-55.524-43.113
		L218.348,204.731z M164.381,236.98l-49.511-38.443l50.053-43.774l50.09,41.752L164.381,236.98z M171.401,149.097l37.661-32.936
		l7.39,70.487L171.401,149.097z M164.79,143.586l-41.073-34.236l40.875-37.404l40.947,36.005L164.79,143.586z M164.478,60.526
		L132.866,32.73h61.986L164.478,60.526z M120.598,117.816l37.714,31.436l-44.743,39.13L120.598,117.816z M111.729,206.858
		l45.823,35.58l-53.637,42.867L111.729,206.858z M164.458,247.801l55.368,42.992H110.665L164.458,247.801z M28.234,344.043v-26.75
		h212.75c2.347,0,4.25-1.902,4.25-4.25c0-2.348-1.903-4.25-4.25-4.25H28.915c1.795-5.507,6.972-9.5,13.07-9.5h256
		c7.581,0,13.75,6.168,13.75,13.75v31c0,7.582-6.169,13.75-13.75,13.75h-256C34.403,357.793,28.234,351.625,28.234,344.043z
		 M46.234,401.195v-34.902h26.5v33.368c-2.583-0.241-5.405-0.38-8.543-0.38C56.73,399.281,51.016,400.046,46.234,401.195z
		 M215.704,406.028c-7.76-3.317-15.784-6.747-31.637-6.747c-15.855,0-23.879,3.431-31.639,6.748
		c-7.293,3.117-14.182,6.063-28.294,6.063c-14.117,0-21.007-2.945-28.302-6.064c-4.341-1.855-8.767-3.745-14.597-5.052v-34.684
		h174.5v44.955c-3.325,0.528-7.143,0.844-11.734,0.844C229.887,412.092,222.998,409.146,215.704,406.028z M272.295,406.028
		c-2.62,1.12-5.192,2.215-8.061,3.162v-42.897h26.5v33.953C282.914,401.498,277.539,403.787,272.295,406.028z M392.156,406.029
		c-7.293,3.117-14.181,6.063-28.291,6.063c-14.113,0-21.002-2.945-28.296-6.064c-7.759-3.317-15.783-6.747-31.636-6.747
		c-1.655,0-3.205,0.045-4.698,0.116v-33.142c9.185-0.512,16.896-6.62,19.781-14.963h107.719v48.03
		c-0.951-0.027-1.931-0.042-2.944-0.042C407.938,399.281,399.915,402.712,392.156,406.029z M455.421,406.028
		c-5.624-2.405-11.403-4.862-20.186-6.035v-48.7h26.5v57.291C459.547,407.787,457.498,406.916,455.421,406.028z"/>
</g>
<g>
</g>
<g>
</g>
<g>
</g>
<g>
</g>
<g>
</g>
<g>
</g>
<g>
</g>
<g>
</g>
<g>
</g>
<g>
</g>
<g>
</g>
<g>
</g>
<g>
</g>
<g>
</g>
<g>
</g>
</svg>
