<?xml version="1.0" encoding="iso-8859-1"?>
<!-- Generator: Adobe Illustrator 19.0.0, SVG Export Plug-In . SVG Version: 6.00 Build 0)  -->
<svg version="1.1" id="Capa_1" xmlns="http://www.w3.org/2000/svg" xmlns:xlink="http://www.w3.org/1999/xlink" x="0px" y="0px"
	 viewBox="0 0 461.802 461.802" style="enable-background:new 0 0 461.802 461.802;" xml:space="preserve">
<g>
	<g>
		<path d="M306.787,209.474c-1.037-1.154-2.387-1.982-3.885-2.383h0l-44.88-6.48l-20.08-40.64
			c-1.971-3.954-6.774-5.562-10.729-3.591c-1.555,0.775-2.816,2.036-3.591,3.591l-20.08,40.64l-45.12,6.48
			c-4.372,0.634-7.403,4.693-6.768,9.066c0.255,1.758,1.088,3.382,2.368,4.614l32.48,32l-8,44.64
			c-0.724,4.359,2.222,8.479,6.58,9.203c1.716,0.285,3.478,0.003,5.02-0.803l40-21.12l40,21.12c3.915,2.048,8.749,0.535,10.797-3.38
			c0.806-1.541,1.088-3.304,0.803-5.02l-8-44.64l32.48-32C309.469,217.819,309.74,212.761,306.787,209.474z M260.662,243.891
			c-1.879,1.825-2.746,4.455-2.32,7.04l5.68,32.88l-29.52-15.52c-2.329-1.223-5.111-1.223-7.44,0l-29.76,15.68l5.68-32.88
			c0.426-2.585-0.441-5.215-2.32-7.04l-24-23.28l32.96-4.8c2.602-0.391,4.845-2.036,6-4.4l15.28-29.84l14.72,29.92
			c1.155,2.364,3.398,4.009,6,4.4l32.96,4.8L260.662,243.891z"/>
	</g>
</g>
<g>
	<g>
		<path d="M461.062,310.131l-30.8-65.6l30.8-65.6c1.139-2.487,0.927-5.384-0.56-7.68c-1.469-2.289-4-3.675-6.72-3.68h-97.76v-39.36
			c-0.009-2.138-0.873-4.183-2.4-5.68c-1.51-1.497-3.554-2.332-5.68-2.32h-2.24c-71.28,0-109.44-33.52-109.84-33.84
			c-3.045-2.748-7.675-2.748-10.72,0c0,0-38.16,33.84-109.84,33.84h-2.24c-4.418,0-8,3.582-8,8v39.36H8.022
			c-4.418-0.011-8.009,3.562-8.02,7.98c-0.003,1.167,0.25,2.321,0.74,3.38l30.8,65.6l-30.8,65.6c-1.856,4.01-0.109,8.765,3.9,10.62
			c1.059,0.49,2.213,0.743,3.38,0.74h126.88c23.258,30.084,57.151,50.122,94.72,56h2.32c37.569-5.878,71.462-25.916,94.72-56h127.12
			c4.418,0.011,8.009-3.562,8.02-7.98C461.804,312.344,461.552,311.19,461.062,310.131z M20.502,305.571l27.04-57.6
			c1.011-2.154,1.011-4.646,0-6.8l-27.04-57.6h84.48v85.28c0.001,0.928,0.164,1.848,0.48,2.72c4.627,11.933,10.528,23.332,17.6,34
			H20.502z M230.902,361.811l-0.48-0.24c-74-11.68-105.44-84.16-109.52-94.4v-131.04c39.241,0.239,77.62-11.512,110-33.68
			c32.246,22.075,70.442,33.822,109.52,33.68v131.28C335.942,277.731,304.502,350.211,230.902,361.811z M338.022,305.571
			c7.072-10.668,12.973-22.067,17.6-34c0.317-0.872,0.479-1.792,0.48-2.72v-85.28h85.04l-27.04,57.6c-1.011,2.154-1.011,4.646,0,6.8
			l27.04,57.6H338.022z"/>
	</g>
</g>
<g>
</g>
<g>
</g>
<g>
</g>
<g>
</g>
<g>
</g>
<g>
</g>
<g>
</g>
<g>
</g>
<g>
</g>
<g>
</g>
<g>
</g>
<g>
</g>
<g>
</g>
<g>
</g>
<g>
</g>
</svg>
