<svg height="479pt" viewBox="-55 0 479 479.99829" width="479pt" xmlns="http://www.w3.org/2000/svg"><path d="m184.5 0c-101.574219.113281-183.886719 82.425781-184 184 0 114 171.0625 286.398438 178.34375 293.65625 3.125 3.121094 8.1875 3.121094 11.3125 0 7.277344-7.257812 178.34375-179.65625 178.34375-293.65625-.117188-101.574219-82.429688-183.886719-184-184zm0 460.527344c-29.90625-31.160156-168-180.28125-168-276.527344 0-92.785156 75.214844-168 168-168 92.78125 0 168 75.214844 168 168 0 96.246094-138.097656 245.367188-168 276.527344zm0 0"/><path d="m328.132812 173.71875c-5.582031-77.980469-72.367187-137.261719-150.460937-133.558594-78.089844 3.707032-138.960937 69.046875-137.132813 147.207032 1.824219 78.15625 65.683594 140.582031 143.863282 140.632812 3.433594 0 6.90625-.128906 10.402344-.375 79.265624-5.78125 138.902343-74.621094 133.328124-153.90625zm-134.488281 137.960938c-40.363281 2.847656-79.6875-13.589844-106.015625-44.3125 10.417969-3.109376 21.328125-4.25 32.167969-3.367188 10.046875 1.023438 19.824219 3.867188 28.855469 8.382812 9.460937 4.925782 19.925781 7.625 30.589844 7.898438 1.90625 0 3.898437-.089844 5.976562-.28125 12.246094-1.21875 23.894531-5.878906 33.601562-13.441406 6.757813-5.296875 14.660157-8.945313 23.078126-10.65625 14.617187-2.011719 29.492187.765625 42.402343 7.914062-22.199219 27.925782-55.078125 45.285156-90.65625 47.863282zm100-61.121094c-16.507812-9.480469-35.722656-13.140625-54.5625-10.398438-10.628906 2.089844-20.636719 6.597656-29.246093 13.175782-7.476563 5.996093-16.53125 9.699218-26.066407 10.664062-9.945312.726562-19.890625-1.464844-28.613281-6.304688-10.636719-5.253906-22.132812-8.539062-33.9375-9.695312-14.855469-1.125-29.78125.898438-43.800781 5.945312-24.855469-37.941406-27.75-86.210937-7.609375-126.851562s60.300781-67.570312 105.546875-70.773438c3.097656-.214843 6.171875-.320312 9.222656-.320312 46.273437-.042969 88.957031 24.9375 111.582031 65.300781 22.628906 40.363281 21.664063 89.804688-2.515625 129.257813zm0 0"/><path d="m104.5 192h128v16h-128zm0 0"/><path d="m288.5 168h-50.234375l-14.175781-42.527344c-1.085938-3.269531-4.144532-5.472656-7.589844-5.472656h-64v-16c0-4.417969-3.582031-8-8-8h-24c-4.417969 0-8 3.582031-8 8v16h-8c-4.417969 0-8 3.582031-8 8v40h-16c-4.417969 0-8 3.582031-8 8v48c0 4.417969 3.582031 8 8 8h176c2.671875 0 5.171875-1.335938 6.65625-3.558594l32-48c1.636719-2.457031 1.789062-5.613281.398438-8.214844-1.394532-2.601562-4.105469-4.226562-7.054688-4.226562zm-160-56h8v8h-8zm32 24v8h-48v-8zm-48 24h56c4.417969 0 8-3.582031 8-8v-16h34.230469l10.671875 32h-108.902344zm139.71875 56h-163.71875v-32h185.046875zm0 0"/></svg>