<?xml version="1.0" encoding="utf-8"?>
<!-- Generator: Adobe Illustrator 19.0.0, SVG Export Plug-In . SVG Version: 6.00 Build 0)  -->
<svg version="1.1" id="Capa_1" xmlns="http://www.w3.org/2000/svg" xmlns:xlink="http://www.w3.org/1999/xlink" x="0px" y="0px"
	 viewBox="-74 38.1 490 565.9" style="enable-background:new -74 38.1 490 565.9;" xml:space="preserve">
<g>
	<path d="M342.2,492l71.2-181.8l-80.8-26.5L280.6,110h-54.7V78.4c0-17.1-16-31-35.6-31h-54.6c-19.6,0-35.6,13.9-35.6,31V110H45.5
		L-5.8,281l-65.6,20.5l61,195.4l-1.6,0.7c-14.4,6.5-26.6,13.7-34.6,18.4c-2.8,1.6-4.9,2.9-6.4,3.7l6.6,15c1.8-1,4.4-2.5,7.4-4.3
		c17.1-10.1,52.8-31,81.7-31c3.3,0,6.5,0.3,9.5,0.8c7.4,1.3,24.5,8.7,32.7,12.3c1.8,0.8,3.1,1.3,3.8,1.6c20.5,8.5,43.9,13,67.8,13
		c23.6,0,46.8-4.4,67.1-12.7c1-0.4,3.2-1.4,5.9-2.6c9.7-4.3,27.7-12.4,35-14.2c6.3-1.6,12.9-2.3,19.8-2.3
		c29.9,0,60.2,14.6,86.6,28.7l7.8-14.5c-10.3-5.5-22.3-11.7-34.7-16.9L342.2,492z M116.6,78.4c0-7.9,8.8-14.6,19.2-14.6h54.6
		c10.4,0,19.2,6.7,19.2,14.6V110h-92.9V80.4h-0.1V78.4z M57.7,126.4h210.8l45.2,151.2l-150.6-49.3l-150,46.8L57.7,126.4z M-11.3,439
		L-50.6,311l199.9-62.4l14.9-2.7l9.7,3l216.2,69.7l-46,120.4H245l-0.8-3.8c2.1-0.9,3.3-2.9,3.3-5.8c0.1-3.6,0-7.4,0-11
		c0-1.8,0-3.7,0-5.5c0-1.8,0.1-3.8,1.9-5.5c11.7-11.7,12.5-31.9,1.8-45l-0.1-0.2l-0.1-0.2c-0.2-0.3-0.2-0.6-0.3-0.8l-0.8-1.6
		l1.6-0.8c0.3-0.2,0.8-0.7,1.6-0.7c3.9-0.2,6.2-0.3,7.1-1.1c0.9-0.8,1.5-3.1,2.4-6.9l0.1-0.3c0.2-0.7,0.3-1.5,0.4-2.2
		c0.3-1.9,0.6-4,1.7-6v-2.1c-1.3-1.9-3.2-2.8-6.2-2.8c-1.2,0-2.5,0.1-4.1,0.1c0,0,0,0,0,0c-1.1,0-2.2,0-3.3,0c-1.1,0-2.2,0-3.2,0
		c-1.5,0-2.8,0-3.9,0.1c-0.2,0-0.3,0-0.4,0c-3.6,0-4.9-2.3-5.6-4.1c-0.9-2.3-1.9-4.6-2.9-6.7c-0.7-1.4-1.3-2.9-1.9-4.3
		c-4.8-11.5-13.2-18.8-25.8-22.2c-14.6-4-29.4-6.1-44.1-6.1c-14.7,0-29.8,2-44.7,6.1c-12.2,3.3-20.6,10.5-25.7,22
		c-0.2,0.5-0.4,0.9-0.6,1.3c-0.2,0.4-0.4,0.8-0.6,1.3c-0.5,1.1-1,2.4-1.4,3.7c-1.1,3.2-2.3,6.5-4.9,8.1c-2.1,1.2-4.5,1.3-6.2,1.3
		c-1.3,0-2.6-0.1-3.9-0.2c-1.2-0.1-2.4-0.2-3.5-0.2c-0.2,0-0.9,0-1.1,0c-0.6,0-1.3,0-1.9,0c-0.6,0-1.2,0-1.8,0
		c-2.8,0-4.6,0.4-5.9,2.6v2.2c1.1,2.4,1.5,4.8,1.9,7.2c0.2,1.1,0.4,2.2,0.6,3.3c1.2,5.4,1.5,5.6,7,5.7c0.4,0,0.8,0,1.2,0.1
		c0.3,0,0.5,0,0.8,0h1.4l0.5,1.4c0.8,2.3-0.6,3.7-1.2,4.4c-0.1,0.1-0.2,0.2-0.3,0.3c-9.2,13.4-7.9,31.1,3.2,43
		c1.9,1.9,2.1,4,2.1,5.7c0,1.8,0,3.6,0,5.4c0,3.5,0,7.2,0,10.8c0.1,4.6,1.8,5.9,3.3,6.5l-0.8,3.8H-11.3z M104.1,367.6l0.2,0
		c9.5,0,17.4,7.9,17.5,17.7c0,9.9-7.9,17.9-17.5,17.9c-10.2,0-18.2-7.8-18.2-17.7c-0.1-4.7,1.8-9.2,5.1-12.6
		C94.7,369.5,99.3,367.6,104.1,367.6z M97.9,338.1c0.7-1.7,1.5-3.3,2.2-5c1-2.2,2.1-4.6,3-6.9c3.3-8,9.5-13.3,19.2-16.1
		c11.8-3.4,24.6-5.1,39.1-5.1c5.1,0,10.4,0.2,16.2,0.6c11.2,0.8,21.3,2.9,30.9,6.6c5.4,2.1,9.3,5.5,12,10.5c2.1,4,3.9,8.1,5.6,12
		c0.5,1.2,1,2.3,1.5,3.5c0.8,1.8,1.4,3.6,0.4,5.2c-1,1.5-2.9,1.7-4.9,1.7c0,0,0,0,0,0c-8.8-0.1-18.2-0.1-30.5-0.1
		c-5,0-10.1,0-15.1,0c-5.1,0-10.1,0-15.2,0c-19.5,0-39.7,0-59.7,0.1c-2.7,0-4.5,0-5.5-1.5C96.2,342.3,96.9,340.6,97.9,338.1z
		 M108.3,429c0.2-8.3,1.1-9.1,9.3-9.1c7.7,0,15.4,0,23.1,0c7.7,0,15.4,0,23.1,0c18.6,0,32.9,0,46.1-0.1c0.2,0,0.4,0,0.7,0
		c1.8,0,3.9,0.2,5.3,1.6c1.4,1.5,1.5,3.7,1.4,5.4c-0.2,6.6,1.1,7.6,2.8,8.3l-0.7,3.9H105.9l-0.8-3.8
		C106.5,434.5,108.1,433.3,108.3,429z M209.1,397.9c-3.4-3.4-5.2-7.9-5.2-12.7c0.1-9.7,8.2-17.7,18.1-17.7l0.2,0
		c9.8,0.1,17.4,8,17.3,18c0,9.8-7.9,17.7-17.7,17.7C217,403.2,212.4,401.3,209.1,397.9z M326.2,485.9l-1.8-0.6
		c-14.3-4.5-27.4-6.7-39.9-6.7c-8.2,0-16.2,1-23.9,2.9c-8.8,2.2-28.9,11.2-38.6,15.5c-2.2,1-3.8,1.7-4.6,2
		c-13.5,5.5-28.3,9.1-43.9,10.6l-20.6,1l-0.1,0c-20.3-0.4-40.3-4.5-57.8-11.8c-0.4-0.2-1.2-0.5-2.3-1c-6.9-3.1-27.9-12.4-37.5-14
		c-3.6-0.6-7.4-0.8-11.3-0.8c-11.2,0-23.7,2.3-37.3,6.9l-1.9,0.7l-10.9-35.3h344.1L326.2,485.9z"/>
	<path d="M260.4,541.8c-8.8,2.2-28.9,11.1-38.6,15.5c-2.2,1-3.8,1.7-4.6,2c-18.5,7.5-39.6,11.5-61,11.5c-21.6,0-42.8-4.1-61.3-11.7
		c-0.4-0.2-1.2-0.5-2.3-1c-6.9-3.1-27.9-12.4-37.5-14c-3.6-0.6-7.3-0.8-11.2-0.8c-35,0-73.8,22.9-90.4,32.6
		c-2.7,1.6-4.9,2.9-6.5,3.8l6.6,15c1.8-1,4.4-2.5,7.4-4.3c17.1-10.1,52.8-31,81.7-31c3.3,0,6.5,0.3,9.5,0.8
		c7.4,1.3,24.5,8.7,32.7,12.3c1.8,0.8,3.1,1.3,3.8,1.6c20.5,8.5,43.9,13,67.8,13c23.6,0,46.8-4.4,67.1-12.7c1-0.4,3.2-1.4,5.9-2.6
		c9.7-4.3,27.7-12.4,35-14.2c6.3-1.6,12.9-2.3,19.8-2.3c29.9,0,60.2,14.6,86.6,28.7l7.8-14.5c-28.3-15-61-30.6-94.3-30.6
		C276.1,539,268.1,539.9,260.4,541.8z"/>
	<rect x="105.5" y="153.1" width="40.1" height="16.4"/>
	<rect x="195.2" y="153.1" width="40.1" height="16.4"/>
</g>
</svg>
