<svg height="480pt" viewBox="0 -4 480 480" width="480pt" xmlns="http://www.w3.org/2000/svg"><path d="m459.449219 442.871094c-7.007813-8.40625-15.746094-18.871094-32.832031-18.871094-17.089844 0-25.816407 10.464844-32.800782 18.871094-6.984375 8.410156-11.417968 13.128906-20.59375 13.128906-3.863281.101562-7.652344-1.054688-10.808594-3.289062l76.929688-177.511719c1-2.308594.851562-4.957031-.398438-7.144531-1.25-2.183594-3.453124-3.65625-5.953124-3.964844l-40.992188-5.152344v-74.9375c0-4.417969-3.582031-8-8-8h-27.480469l-4.566406-40.886719c-.453125-4.050781-3.878906-7.113281-7.953125-7.113281h-72v-40c0-4.417969-3.582031-8-8-8h-48c-4.417969 0-8 3.582031-8 8v40h-72c-4.074219 0-7.5 3.0625-7.953125 7.113281l-4.566406 40.886719h-27.480469c-4.417969 0-8 3.582031-8 8v74.9375l-40.992188 5.125c-2.417968.304688-4.5625 1.695312-5.832031 3.777344-1.265625 2.078125-1.515625 4.625-.679687 6.914062l55.296875 150.886719c-8.878907 3.429687-16.535157 9.433594-21.984375 17.238281-6.976563 8.378906-11.410156 13.121094-20.511719 13.121094-9.105469 0-13.519531-4.742188-20.496094-13.121094-6.976562-8.375-15.730469-18.878906-32.800781-18.878906v16c9.136719 0 13.519531 4.742188 20.496094 13.121094 6.976562 8.375 15.726562 18.878906 32.800781 18.878906 17.070313 0 25.800781-10.472656 32.800781-18.878906 7-8.410156 11.382813-13.121094 20.511719-13.121094 9.125 0 13.535156 4.742188 20.511719 13.121094 6.976562 8.375 15.726562 18.878906 32.808594 18.878906 17.078124 0 25.796874-10.472656 32.796874-18.878906 7-8.410156 11.386719-13.121094 20.511719-13.121094 9.128907 0 13.546875 4.742188 20.53125 13.128906 6.984375 8.382813 15.726563 18.871094 32.804688 18.871094 17.082031 0 25.792969-10.472656 32.800781-18.878906 7.007812-8.410156 11.378906-13.121094 20.503906-13.121094 9.128906 0 13.546875 4.742188 20.527344 13.121094 6.984375 8.375 15.738281 18.878906 32.816406 18.878906 17.082032 0 25.824219-10.464844 32.839844-18.871094 7.015625-8.410156 11.402344-13.128906 20.554688-13.128906 9.152343 0 13.550781 4.742188 20.550781 13.121094 7 8.375 15.734375 18.878906 32.832031 18.878906v-16c-9.160156 0-13.558594-4.742188-20.550781-13.128906zm-235.449219-346.871094h32v32h-32zm-80.800781 48h193.679687l3.578125 32h-200.800781zm-39.199219 48h272v64.9375l-135.007812-16.875c-.660157-.085938-1.324219-.085938-1.984376 0l-135.007812 16.875zm215.878906 232c-17.070312 0-25.789062 10.472656-32.800781 18.878906-7.007813 8.410156-11.367187 13.121094-20.503906 13.121094-7.613281-.328125-14.570313-4.410156-18.574219-10.894531v-157.105469h-16v141.414062c-5.578125-3.621093-12.109375-5.503906-18.761719-5.414062-17.070312 0-25.789062 10.472656-32.796875 18.878906-7.007812 8.410156-11.378906 13.121094-20.511718 13.121094-9.136719 0-13.539063-4.742188-20.515626-13.121094-6.273437-9.410156-15.964843-16.007812-27.023437-18.398437l-37.40625-102.082031 86.6875-18.558594-3.34375-15.648438-88.914063 19.007813-10.445312-28.511719 181.03125-22.625 180.414062 22.554688-12.183593 28.109374-86.550781-18.550781-3.359376 15.648438 83.421876 17.878906-51.34375 118.457031c-7.023438-9.933594-18.355469-15.9375-30.519532-16.160156zm0 0"/><path d="m184 56h32v16h16v-24c0-4.417969-3.582031-8-8-8h-32v-24h-16v32c0 4.417969 3.582031 8 8 8zm0 0"/><path d="m216 24h32v48h16v-56c0-4.417969-3.582031-8-8-8h-32v-8h-16v16c0 4.417969 3.582031 8 8 8zm0 0"/></svg>