<svg id="Capa_1" enable-background="new 0 0 512 512" height="512" viewBox="0 0 512 512" width="512" xmlns="http://www.w3.org/2000/svg"><path d="m512 30h-61v-30h-30v30h-60v-30h-30v30h-60v-30h-30v30h-60v-30h-30v30h-60v-30h-30v30h-61v482h512c0-44.253 0-413.62 0-482zm-482 30h31v30h30v-30h60v30h30v-30h60v30h30v-30h60v30h30v-30h60v30h30v-30h31v60h-452zm0 422v-332h452v332z"/><path d="m271 211h60v30h-60z"/><path d="m271 301h60v30h-60z"/><path d="m181 301h60v30h-60z"/><path d="m91 301h60v30h-60z"/><path d="m361 211h60v30h-60z"/><path d="m361 301h60v30h-60z"/><path d="m271 391h60v30h-60z"/><path d="m181 391h60v30h-60z"/><path d="m91 391h60v30h-60z"/><path d="m361 391h60v30h-60z"/></svg>