<?xml version="1.0" encoding="iso-8859-1"?>
<!-- Generator: Adobe Illustrator 19.0.0, SVG Export Plug-In . SVG Version: 6.00 Build 0)  -->
<svg version="1.1" id="Capa_1" xmlns="http://www.w3.org/2000/svg" xmlns:xlink="http://www.w3.org/1999/xlink" x="0px" y="0px"
	 viewBox="0 0 450.001 450.001" style="enable-background:new 0 0 450.001 450.001;" xml:space="preserve">
<g>
	<g>
		<g>
			<path d="M0,326.962c0,2.762,2.239,5,5,5c6.966,0,10.355,3.697,14.646,8.379c4.746,5.178,10.652,11.621,22.018,11.621
				s17.272-6.443,22.018-11.621c4.291-4.682,7.68-8.379,14.646-8.379c6.967,0,10.356,3.697,14.647,8.379
				c4.746,5.178,10.653,11.621,22.019,11.621c11.366,0,17.272-6.443,22.019-11.621c4.292-4.682,7.681-8.379,14.648-8.379
				c6.966,0,10.355,3.697,14.645,8.379c4.745,5.178,10.651,11.621,22.014,11.621c11.365,0,17.271-6.444,22.017-11.622
				c4.291-4.681,7.679-8.378,14.645-8.378c6.967,0,10.356,3.697,14.647,8.379c4.746,5.177,10.653,11.621,22.02,11.621
				s17.273-6.444,22.02-11.622c4.291-4.681,7.681-8.378,14.646-8.378c6.969,0,10.358,3.697,14.65,8.379
				c4.746,5.178,10.653,11.621,22.02,11.621c11.367,0,17.273-6.443,22.02-11.621c4.291-4.682,7.681-8.379,14.648-8.379
				c6.969,0,10.358,3.697,14.65,8.379c4.747,5.178,10.654,11.621,22.021,11.621c11.368,0,17.276-6.443,22.023-11.621
				c4.292-4.682,7.683-8.379,14.651-8.379c2.762,0,5-2.238,5-5c0-2.762-2.238-5-5-5c-11.367,0-17.275,6.443-22.022,11.621
				c-4.292,4.682-7.683,8.379-14.652,8.379s-10.358-3.697-14.65-8.379c-1.62-1.767-3.383-3.678-5.444-5.433l61.142-110.203
				c0.859-1.549,0.835-3.437-0.063-4.962c-0.898-1.526-2.537-2.463-4.309-2.463h-11.835v-65V67.351
				c0-18.103-14.728-32.83-32.829-32.83h-90.171c-2.762,0-5,2.239-5,5v32.76v73.24c0,2.761,2.238,5,5,5h22v60H5
				c-2.761,0-5,2.239-5,5v82.009c0,8.452,1.665,16.742,4.859,24.446C2.165,322.053,0,324.249,0,326.962z M315.165,44.521h85.171
				c12.588,0,22.829,10.242,22.829,22.83v73.17h-49v-47.91c0-13.967-11.362-25.33-25.329-25.33h-33.671V44.521z M355.497,193.187
				h-13.332v-7.666h13.332c2.762,0,5-2.239,5-5c0-2.761-2.238-5-5-5h-13.332v-7.667h13.332c2.762,0,5-2.239,5-5c0-2.761-2.238-5-5-5
				h-13.332v-7.333h27h54v60h-81v-7.334h13.332c2.762,0,5-2.239,5-5C360.497,195.426,358.259,193.187,355.497,193.187z
				 M315.165,140.521v-63.24h33.671c8.452,0,15.329,6.877,15.329,15.33v47.91h-27H315.165z M10,220.521h327.165h91h8.343
				L379.56,323.167c-2.313-0.751-4.917-1.205-7.906-1.205c-11.366,0-17.273,6.443-22.02,11.621
				c-4.291,4.682-7.681,8.379-14.648,8.379c-6.967,0-10.357-3.697-14.648-8.378c-4.746-5.178-10.654-11.622-22.021-11.622
				c-11.365,0-17.271,6.443-22.018,11.621c-4.291,4.682-7.681,8.379-14.648,8.379c-6.967,0-10.357-3.697-14.648-8.379
				c-4.746-5.178-10.652-11.621-22.019-11.621c-11.365,0-17.271,6.444-22.017,11.622c-4.291,4.681-7.679,8.378-14.645,8.378
				c-6.964,0-10.352-3.697-14.642-8.378c-4.745-5.178-10.651-11.622-22.017-11.622c-11.367,0-17.273,6.444-22.02,11.621
				c-4.291,4.682-7.68,8.379-14.647,8.379c-6.967,0-10.356-3.697-14.647-8.379c-4.746-5.178-10.653-11.621-22.019-11.621
				c-11.366,0-17.272,6.443-22.018,11.621c-4.291,4.682-7.68,8.379-14.646,8.379s-10.355-3.697-14.646-8.379
				c-2.531-2.761-5.402-5.874-9.245-8.186C12.689,317.009,10,307.401,10,297.53V220.521z"/>
			<path d="M5,363.721c6.966,0,10.355,3.697,14.646,8.379c4.746,5.178,10.652,11.621,22.018,11.621s17.272-6.443,22.018-11.621
				c4.291-4.682,7.68-8.379,14.646-8.379c6.967,0,10.356,3.697,14.647,8.379c4.746,5.178,10.653,11.621,22.019,11.621
				c11.366,0,17.272-6.443,22.019-11.621c4.292-4.682,7.681-8.379,14.648-8.379c6.966,0,10.355,3.697,14.645,8.379
				c4.745,5.178,10.651,11.621,22.014,11.621c11.365,0,17.271-6.444,22.017-11.622c4.291-4.681,7.679-8.378,14.645-8.378
				c6.967,0,10.356,3.697,14.647,8.379c4.746,5.177,10.653,11.621,22.02,11.621s17.273-6.444,22.02-11.622
				c4.291-4.681,7.681-8.378,14.646-8.378c6.969,0,10.358,3.697,14.65,8.379c4.746,5.178,10.653,11.621,22.02,11.621
				c11.367,0,17.273-6.443,22.02-11.621c4.291-4.682,7.681-8.379,14.648-8.379c6.969,0,10.358,3.697,14.65,8.379
				c4.747,5.178,10.654,11.621,22.021,11.621c11.368,0,17.276-6.443,22.023-11.621c4.292-4.682,7.683-8.379,14.651-8.379
				c2.762,0,5-2.238,5-5c0-2.762-2.236-5-4.998-5c-11.367,0-17.275,6.443-22.022,11.621c-4.292,4.682-7.683,8.379-14.652,8.379
				s-10.358-3.697-14.65-8.379c-4.747-5.178-10.654-11.621-22.021-11.621c-11.366,0-17.273,6.443-22.02,11.621
				c-4.291,4.682-7.681,8.379-14.648,8.379c-6.967,0-10.357-3.697-14.648-8.378c-4.746-5.178-10.654-11.622-22.021-11.622
				c-11.365,0-17.271,6.443-22.018,11.621c-4.291,4.682-7.681,8.379-14.648,8.379c-6.967,0-10.357-3.697-14.648-8.379
				c-4.746-5.178-10.652-11.621-22.019-11.621c-11.365,0-17.271,6.444-22.017,11.622c-4.291,4.681-7.679,8.378-14.645,8.378
				c-6.964,0-10.352-3.697-14.642-8.378c-4.745-5.178-10.651-11.622-22.017-11.622c-11.367,0-17.273,6.444-22.02,11.621
				c-4.291,4.682-7.68,8.379-14.647,8.379c-6.967,0-10.356-3.697-14.647-8.379c-4.746-5.178-10.653-11.621-22.019-11.621
				c-11.366,0-17.272,6.443-22.018,11.621c-4.291,4.682-7.68,8.379-14.646,8.379s-10.355-3.697-14.646-8.379
				C22.272,360.165,16.366,353.721,5,353.721c-2.761,0-5,2.238-5,5C0,361.483,2.239,363.721,5,363.721z"/>
			<path d="M445,385.48c-11.367,0-17.275,6.443-22.022,11.621c-4.292,4.682-7.683,8.379-14.652,8.379s-10.358-3.697-14.65-8.379
				c-4.747-5.178-10.654-11.621-22.021-11.621c-11.366,0-17.273,6.443-22.02,11.621c-4.291,4.682-7.681,8.379-14.648,8.379
				c-6.967,0-10.357-3.697-14.648-8.378c-4.746-5.178-10.654-11.622-22.021-11.622c-11.365,0-17.271,6.443-22.018,11.621
				c-4.291,4.682-7.681,8.379-14.648,8.379c-6.967,0-10.357-3.697-14.648-8.379c-4.746-5.178-10.652-11.621-22.019-11.621
				c-11.365,0-17.271,6.444-22.017,11.622c-4.291,4.681-7.679,8.378-14.645,8.378c-6.964,0-10.352-3.697-14.642-8.378
				c-4.745-5.178-10.651-11.622-22.017-11.622c-11.367,0-17.273,6.444-22.02,11.621c-4.291,4.682-7.68,8.379-14.647,8.379
				c-6.967,0-10.356-3.697-14.647-8.379c-4.746-5.178-10.653-11.621-22.019-11.621c-11.366,0-17.272,6.443-22.018,11.621
				c-4.291,4.682-7.68,8.379-14.646,8.379s-10.355-3.697-14.646-8.379c-4.746-5.178-10.652-11.621-22.018-11.621
				c-2.761,0-5,2.238-5,5c0,2.762,2.239,5,5,5c6.966,0,10.355,3.697,14.646,8.379c4.746,5.178,10.652,11.621,22.018,11.621
				c11.366,0,17.272-6.443,22.018-11.621c4.291-4.682,7.68-8.379,14.646-8.379c6.967,0,10.356,3.697,14.647,8.379
				c4.746,5.178,10.653,11.621,22.019,11.621c11.366,0,17.272-6.443,22.019-11.621c4.292-4.682,7.681-8.379,14.648-8.379
				c6.966,0,10.355,3.697,14.645,8.379c4.745,5.178,10.651,11.621,22.014,11.621c11.365,0,17.271-6.444,22.017-11.622
				c4.291-4.681,7.679-8.378,14.645-8.378c6.967,0,10.356,3.697,14.647,8.379c4.746,5.177,10.653,11.621,22.02,11.621
				s17.273-6.444,22.02-11.622c4.291-4.681,7.681-8.378,14.646-8.378c6.969,0,10.358,3.697,14.65,8.379
				c4.746,5.178,10.653,11.621,22.02,11.621s17.273-6.443,22.02-11.621c4.291-4.682,7.681-8.379,14.648-8.379
				c6.969,0,10.358,3.697,14.65,8.379c4.747,5.178,10.654,11.621,22.021,11.621c11.368,0,17.276-6.443,22.023-11.621
				c4.292-4.682,7.683-8.379,14.651-8.379c2.762,0,5-2.238,5-5C450.001,387.718,447.762,385.48,445,385.48z"/>
			<path d="M360,279.28c11.579,0,21-9.421,21-21c0-11.579-9.421-21-21-21c-11.579,0-21,9.421-21,21
				C339,269.859,348.421,279.28,360,279.28z M360,247.28c6.065,0,11,4.935,11,11c0,6.065-4.935,11-11,11s-11-4.935-11-11
				C349,252.215,353.935,247.28,360,247.28z"/>
			<path d="M29,207.521c2.761,0,5-2.239,5-5V134.28h56.5H147v68.241c0,2.761,2.239,5,5,5s5-2.239,5-5V134.28h56.5H270v68.241
				c0,2.761,2.238,5,5,5c2.762,0,5-2.239,5-5V129.28c0-2.761-2.238-5-5-5h-56.5V56.039c0-2.761-2.239-5-5-5h-123
				c-2.761,0-5,2.239-5,5v68.241H29c-2.761,0-5,2.239-5,5v73.241C24,205.282,26.239,207.521,29,207.521z M95.5,61.039h113v63.241
				H152H95.5V61.039z"/>
			<path d="M85.5,147.521v36.759c0,2.761,2.239,5,5,5s5-2.239,5-5v-36.759c0-2.761-2.239-5-5-5S85.5,144.76,85.5,147.521z"/>
			<path d="M105,147.521v36.759c0,2.761,2.239,5,5,5s5-2.239,5-5v-36.759c0-2.761-2.239-5-5-5S105,144.76,105,147.521z"/>
			<path d="M124.5,147.521v36.759c0,2.761,2.239,5,5,5s5-2.239,5-5v-36.759c0-2.761-2.239-5-5-5S124.5,144.76,124.5,147.521z"/>
			<path d="M46.5,147.521v36.759c0,2.761,2.239,5,5,5s5-2.239,5-5v-36.759c0-2.761-2.239-5-5-5S46.5,144.76,46.5,147.521z"/>
			<path d="M66,147.521v36.759c0,2.761,2.239,5,5,5s5-2.239,5-5v-36.759c0-2.761-2.239-5-5-5S66,144.76,66,147.521z"/>
			<path d="M208.5,147.521v36.759c0,2.761,2.239,5,5,5s5-2.239,5-5v-36.759c0-2.761-2.239-5-5-5S208.5,144.76,208.5,147.521z"/>
			<path d="M228,147.521v36.759c0,2.761,2.238,5,5,5c2.762,0,5-2.239,5-5v-36.759c0-2.761-2.238-5-5-5
				C230.238,142.521,228,144.76,228,147.521z"/>
			<path d="M247.5,147.521v36.759c0,2.761,2.238,5,5,5c2.762,0,5-2.239,5-5v-36.759c0-2.761-2.238-5-5-5
				C249.738,142.521,247.5,144.76,247.5,147.521z"/>
			<path d="M169.5,147.521v36.759c0,2.761,2.239,5,5,5s5-2.239,5-5v-36.759c0-2.761-2.239-5-5-5S169.5,144.76,169.5,147.521z"/>
			<path d="M189,147.521v36.759c0,2.761,2.239,5,5,5s5-2.239,5-5v-36.759c0-2.761-2.239-5-5-5S189,144.76,189,147.521z"/>
			<path d="M157,111.039V74.28c0-2.761-2.239-5-5-5s-5,2.239-5,5v36.759c0,2.761,2.239,5,5,5S157,113.8,157,111.039z"/>
			<path d="M171.5,116.039c2.761,0,5-2.239,5-5V74.28c0-2.761-2.239-5-5-5s-5,2.239-5,5v36.759
				C166.5,113.8,168.739,116.039,171.5,116.039z"/>
			<path d="M191,116.039c2.761,0,5-2.239,5-5V74.28c0-2.761-2.239-5-5-5s-5,2.239-5,5v36.759C186,113.8,188.239,116.039,191,116.039
				z"/>
			<path d="M113,69.28c-2.761,0-5,2.239-5,5v36.759c0,2.761,2.239,5,5,5s5-2.239,5-5V74.28C118,71.519,115.761,69.28,113,69.28z"/>
			<path d="M132.5,69.28c-2.761,0-5,2.239-5,5v36.759c0,2.761,2.239,5,5,5s5-2.239,5-5V74.28
				C137.5,71.519,135.261,69.28,132.5,69.28z"/>
		</g>
	</g>
</g>
<g>
</g>
<g>
</g>
<g>
</g>
<g>
</g>
<g>
</g>
<g>
</g>
<g>
</g>
<g>
</g>
<g>
</g>
<g>
</g>
<g>
</g>
<g>
</g>
<g>
</g>
<g>
</g>
<g>
</g>
</svg>
