<?xml version="1.0" encoding="iso-8859-1"?>
<!-- Generator: Adobe Illustrator 19.0.0, SVG Export Plug-In . SVG Version: 6.00 Build 0)  -->
<svg version="1.1" id="Capa_1" xmlns="http://www.w3.org/2000/svg" xmlns:xlink="http://www.w3.org/1999/xlink" x="0px" y="0px"
	 viewBox="0 0 477.656 477.656" style="enable-background:new 0 0 477.656 477.656;" xml:space="preserve">
<g>
	<g>
		<path d="M472.72,136.608c-2.992-1.24-6.432-0.552-8.72,1.736l-58.344,58.344V80c0-4.416-3.576-8-8-8H280.968l58.344-58.344
			c2.288-2.288,2.976-5.728,1.736-8.72C339.816,1.952,336.888,0,333.656,0h-118.56c-2.128,0-4.16,0.84-5.656,2.344L104,107.784
			c-1.504,1.504-2.344,3.536-2.344,5.656v147.248L0,362.344l11.312,11.312l104-104c1.504-1.496,2.344-3.536,2.344-5.656V116.752
			L218.408,16h95.936L256,74.344l-72,72c-1.504,1.496-2.344,3.536-2.344,5.656v136c0,4.416,3.576,8,8,8h136
			c2.128,0,4.16-0.84,5.656-2.344l72-72l58.344-58.344v95.936L360.904,360H213.656c-2.128,0-4.16,0.84-5.656,2.344l-104,104
			l11.312,11.312L216.968,376h147.248c2.128,0,4.16-0.84,5.656-2.344l105.44-105.44c1.504-1.504,2.344-3.536,2.344-5.656V144
			C477.656,140.768,475.712,137.848,472.72,136.608z M389.656,212.688L322.344,280H197.656V155.312L264.968,88h124.688V212.688z"/>
	</g>
</g>
<g>
	<g>
		<path d="M293.656,128c-30.872,0-56,25.12-56,56s25.128,56,56,56s56-25.12,56-56S324.528,128,293.656,128z M293.656,224
			c-19.312,0-35.472-13.768-39.192-32h78.384C329.128,210.232,312.968,224,293.656,224z M254.464,176
			c3.72-18.232,19.88-32,39.192-32s35.472,13.768,39.192,32H254.464z"/>
	</g>
</g>
<g>
</g>
<g>
</g>
<g>
</g>
<g>
</g>
<g>
</g>
<g>
</g>
<g>
</g>
<g>
</g>
<g>
</g>
<g>
</g>
<g>
</g>
<g>
</g>
<g>
</g>
<g>
</g>
<g>
</g>
</svg>
